<?xml version="1.0" encoding="utf-8"?>
<!-- Svg Vector Icons : http://www.onlinewebfonts.com/icon -->
<!DOCTYPE svg PUBLIC "-//W3C//DTD SVG 1.1//EN" "http://www.w3.org/Graphics/SVG/1.1/DTD/svg11.dtd">
<svg version="1.1" xmlns="http://www.w3.org/2000/svg" xmlns:xlink="http://www.w3.org/1999/xlink" x="0px" y="0px" viewBox="0 0 1000 1000" enable-background="new 0 0 1000 1000" xml:space="preserve">
<metadata> Svg Vector Icons : http://www.onlinewebfonts.com/icon </metadata>
<g><path fill="#000000" d="M980.1,797L764.9,670c-11.3-5.7-27.6-3.2-36.6,5.8L665,739.1c-8.9,8.9-26.5,16.3-39,16.4c0,0-81,1.1-231.6-149.6C243.9,455.4,244.6,374.1,244.6,374.1c0.1-12.5,7.5-30.1,16.3-39l54-54c8.9-9,11.8-25.6,6.6-36.9L202.8,20.9c-5.2-11.4-16.7-13.4-25.6-4.7l-147.4,147c-8.9,8.8-17.5,26.3-19.1,38.8c0,0-28.8,214.7,272.2,515.6c300.9,300.9,515.6,272.2,515.6,272.2c12.5-1.6,29.9-10.2,38.8-19.1l147.1-147.2C993.3,814.7,991.4,802.7,980.1,797z"/><path fill="#000000" d="M454.5,394.2c31.6,7.8,61.5,24,86.2,48.7c24.8,24.8,40.9,54.9,48.7,86.7h60.1c-6.2-49.2-28.2-94.7-63.7-130.3C550,363.2,504,341,454.5,335V394.2z"/><path fill="#000000" d="M905.5,529.6h70.7c-5-269.8-251.9-516-521.7-520.1v69.2C696.5,92.1,891,286.8,905.5,529.6z"/><path fill="#000000" d="M742.3,529.6h70.8c-14.2-191.9-167.5-345.3-358.6-358.5v71.4C606.7,255.4,728.4,377,742.3,529.6z"/></g>
</svg>