<?xml version="1.0" encoding="utf-8"?>
<!-- Generator: Adobe Illustrator 17.0.0, SVG Export Plug-In . SVG Version: 6.00 Build 0)  -->
<!DOCTYPE svg PUBLIC "-//W3C//DTD SVG 1.1//EN" "http://www.w3.org/Graphics/SVG/1.1/DTD/svg11.dtd">
<svg version="1.1" id="Слой_1" xmlns="http://www.w3.org/2000/svg" xmlns:xlink="http://www.w3.org/1999/xlink" x="0px" y="0px"
	 width="325.984px" height="359.295px" viewBox="0 0 325.984 359.295" enable-background="new 0 0 325.984 359.295"
	 xml:space="preserve">
<g>
	<path fill="#a9907a" d="M112.37,64.044c-1.267,0.48-2.458,0.543-3.785,0.293c-0.747-0.141-1.067,1.002-0.315,1.144
		c1.529,0.289,2.948,0.263,4.416-0.293C113.394,64.92,113.087,63.773,112.37,64.044z"/>
	<path fill="#a9907a" d="M152.716,70.282c0.671,0.33,1.462,0.852,2.244,0.852c2.496,0,2.294-3.107,4.148-3.955
		c0.695-0.318,0.092-1.34-0.599-1.024c-1.235,0.565-1.711,1.22-2.105,2.502c-0.883,2.879-4.09-0.415-5.724-0.299
		c-2.185,0.155-2.736,1.619-1.083,2.976c2.142,1.759,4.986,3.067,7.575,4.026c0.177,0.066,0.826,1.142,0.977,1.328
		c0.499,0.614,1.318,0.887,2.042,1.089c1.485,0.415,3.169-0.322,4.482-0.931c0.693-0.322,0.09-1.344-0.599-1.024
		c-2.26,1.049-4.521,1.293-5.925-1.252c-0.167-0.303-0.632-0.343-0.924-0.451c-2.124-0.787-4.195-1.936-6.102-3.146
		C148.711,69.441,151.262,69.567,152.716,70.282z"/>
	<path fill="#a9907a" d="M232.629,127.226c3.698-1.925,6.324,3.715,4.461,6.511c-0.425,0.639,0.603,1.232,1.024,0.599
		c2.568-3.855-1.354-10.596-6.084-8.134C231.352,126.555,231.952,127.579,232.629,127.226z"/>
	<path fill="#a9907a" d="M68.722,233.987c-0.397,1.762,0.693,3.688,2.512,4.068c1.232,0.257,0.352,3.307,2.048,3.774
		c1.338,0.368,2.301-0.704,3.007-1.668c0.516-0.706,0.847-1.911,0.838-2.751c-0.008-0.705,1.618-2.173,1.94-2.897
		c0.304-0.685,0.292-1.997,0.113-2.695c-0.343-1.337,2.039-4.221,2.688-5.214c0.208-0.318,0.06-0.624-0.192-0.774
		c1.09,0.722,2.38,1.241,3.916,1.486c0.331,0.053,0.622-0.081,0.73-0.414c1.193-3.688,1.184-7.259-0.769-10.514
		c1.232-0.045,2.378-0.342,3.712-0.475c0.355-0.035,0.549-0.246,0.593-0.593c0.548-4.257-2.213-7.617-5.007-10.525
		c-0.103-0.107-0.217-0.149-0.331-0.164c1.493-3.169,1.217-6.167,0.043-9.421c0.666,0.212,1.337,0.407,2,0.629
		c-0.684-0.01-0.658,1.092,0.066,1.181c0.624,0.077,1.491,0.687,2.086,0.968c0.98,0.462,1.98,0.925,3.029,1.208
		c0.211,0.057,0.381-0.001,0.508-0.11c-0.067,0.905,0.187,1.855,0.895,2.913c0.218,0.325,0.638,0.389,0.932,0.12
		c0.145-0.1,0.291-0.2,0.436-0.3c0.432,3.299,0.948,6.47,4.117,8.301c0.352,0.204,0.95-0.048,0.893-0.512
		c-0.179-1.458,0.079-2.733,0.435-4.047c1.216,2.069,3.272,3.646,5.771,3.653c3.18,0.01,2.942-3.489,2.216-5.639
		c0.517-0.159,1.016-0.14,1.5,0.002c-0.154,0.21-0.19,0.501,0.049,0.739c2.002,1.987,0.221,3.616,0.47,5.876
		c0.101,0.917,0.605,2.143,1.165,3.054c-0.297,1.175-0.193,2.4,0.727,3.317c1.33,1.327,2.649,0.926,3.725-0.041
		c0.226,1.164,1.267,1.91,2.82,2.825c0.661,0.389,1.257-0.636,0.599-1.024c-1.215-0.716-2.939-1.358-1.984-3.582
		c0.294-0.685-0.614-1.269-1.024-0.599c-0.557,1.636-1.718,2.062-3.484,1.278c-0.198-0.301-0.293-0.625-0.328-0.956
		c1.327,0.809,1.46-2.585,1.402-3.537c-0.029-0.473-0.65-0.842-1.013-0.419c-0.304,0.354-0.597,0.781-0.849,1.245
		c-0.558-1.237-0.742-2.464-0.313-3.82c0.428-1.354,0.415-2.319-0.137-3.275c1.759,1.52,3.382,4.032,5.108,4.823
		c1.831,0.839,4.6,0.973,6.178-0.491c0.498-0.461,0.851-0.976,1.076-1.491c1.686,0.576,4.151,1.592,1.359,2.916
		c-0.691,0.328-0.089,1.35,0.599,1.024c4.578-2.171,1.411-3.793-1.671-5.012c0.179-1.812-1.293-3.126-3.761-1.284
		c-0.332,0.248-0.432,0.797,0,1.024c0.738,0.388,1.519,0.665,2.306,0.934c-0.2,0.442-0.544,0.899-1.032,1.249
		c-2.347,1.684-5.588-0.251-7.21-1.975c-1.854-1.969-3.368-4.837-6.408-3.996c1.384-3.104-0.322-5.26-2.86-6.827
		c0.725-0.42,1.445-0.849,2.183-1.248c0.285-0.154,0.371-0.539,0.213-0.812c-1.728-2.985-4.699-3.909-7.923-3.443
		c-0.115-0.802-0.268-1.598-0.344-2.409c-0.042-0.443-0.473-0.745-0.893-0.512c-2.805,1.559-4.111,3.883-3.809,7.103
		c0.018,0.197,0.114,0.34,0.242,0.434c-0.212,0.173-0.313,0.466-0.156,0.732c-0.121,0.011-0.242,0.055-0.351,0.172
		c-0.856,0.92-1.453,1.811-1.724,2.735c-0.067-0.112-0.171-0.207-0.335-0.251c-1.124-0.304-2.178-0.818-3.226-1.316
		c-0.387-0.184-0.793-0.41-1.211-0.595c0.362-0.071,0.598-0.557,0.398-0.892c-0.58-0.97-1.09-1.961-1.606-2.966
		c-0.323-0.628-0.789-0.169,0.373-0.557c0.33-0.11,0.472-0.397,0.414-0.73c-0.792-4.576-11.425-14.248-11.697-5.532
		c-2.45-1.762-4.537-1.073-5.704,2.017c-0.091,0.241,0.056,0.551,0.273,0.67c3.18,1.749,0.489,4.324,0.307,6.507
		c-0.143,1.712,0.252,3.807,1.38,5.176c1.812,2.199,3.398,1.188,4.47-0.551c0.375,1.449,1.072,2.531,2.021,3.419
		c-0.064,0.086-0.114,0.185-0.123,0.315c-0.075,1.046-0.254,1.992-0.498,2.949c-1.426-1.999-3.483-3.512-4.97-1.51
		c-2.128-2.088-4.721-2.034-6.342-0.915c-0.728-1.96-1.308-3.969-1.963-5.954c-0.239-0.723-1.384-0.413-1.144,0.315
		c0.721,2.184,1.342,4.401,2.18,6.544c-0.817,1.139-0.924,2.72,0.262,4.315c-4.514,0.057-4.266,6.763-0.216,8.958
		c-0.039,0.08-0.077,0.16-0.116,0.24c-0.546,0.75-1.042,1.602-1.298,2.493c-0.317,0.52-0.662,1.024-1.099,1.476
		c-0.036,0.038-0.052,0.079-0.076,0.119c-1.708-1.096-2.805-2.148-3.326-4.251c-0.075-0.302-0.429-0.515-0.73-0.414
		c-2.668,0.889-0.86-7.004-0.588-8.058c0.065-0.254-0.038-0.54-0.273-0.67c-1.214-0.675-0.606-1.743-0.585-3.003
		c0.007-0.398-0.382-0.658-0.751-0.572c-6.277,1.464-2.781-3.937-0.219-6.266c0.322,0.787,0.718,1.556,1.182,2.304
		c0.176,0.284,0.519,0.366,0.812,0.213c2.915-1.533,5.538-3.718,5.964-6.96c0.094,0.379,0.158,0.768,0.174,1.175
		c0.011,0.294,0.263,0.631,0.593,0.593c0.506-0.058,0.967-0.222,1.451-0.374c0.199-0.062,1.016,1.305,1.205,1.518
		c0.508,0.574,1.344-0.268,0.839-0.839c-0.47-0.531-0.811-1.483-1.438-1.85c-0.428-0.251-1.022,0.025-1.54,0.215
		c-0.208-1.34-0.8-2.515-1.263-3.815c-0.255-0.715-1.402-0.407-1.144,0.315c0.127,0.356,0.268,0.703,0.41,1.049
		c-0.246,0.046-0.454,0.224-0.431,0.551c0.236,3.436-2.148,5.574-4.892,7.111c-0.401-0.7-0.738-1.417-1.004-2.149
		c0.044-0.236-0.048-0.486-0.216-0.631c-0.529-1.752-0.642-3.587-0.192-5.491c0.088-0.373-0.176-0.751-0.572-0.751
		c-1.814,0-0.221-2.172,0.133-3.204c0.249-0.726-0.897-1.035-1.144-0.315c-0.576,1.682-1.539,2.481-0.879,4.27
		c0.093,0.251,0.291,0.436,0.572,0.436c0.204,0,0.407,0,0.611,0c-0.317,1.866-0.182,3.69,0.346,5.435
		c-2.128,1.669-4.104,3.992-4.359,6.748c-0.336,3.629,5.54,0.676,4.208,3.62c-0.144,0.319-0.069,0.605,0.213,0.812
		c1.375,1.009,0.434,2.877,0.24,4.459c-0.227,1.853,0.137,3.583,0.805,5.292c0.113,0.288,0.399,0.524,0.73,0.414
		c1.068-0.356,1.307,1.322,1.966,2.199c0.694,0.923,1.899,1.549,2.849,2.135c0.39,0.241,0.754-0.031,0.849-0.372
		c0.106-0.019,0.213-0.06,0.309-0.16c0.07-0.073,0.122-0.155,0.189-0.23c0.051,0.203,0.116,0.405,0.208,0.606
		c0.3,0.651,1.997,2.401,1.669,3.129c-0.287,0.638-0.477,1.933-0.269,2.63c0.027,0.092,0.064,0.177,0.099,0.264
		c-0.587,1.128-1.428,1.63-2.22,1.6c0.444-1.177-0.111-2.41-2.575-3.279c-0.348-0.123-0.779,0.202-0.751,0.572
		c0.12,1.593,0.77,2.695,1.636,3.302c-0.41,0.467-1.023,0.908-1.716,1.266c-0.863,0.445-1.95,0.751-2.921,0.583
		c-0.447-0.077-0.676-0.322-0.773-0.647c0.789-0.469,0.735-2.025,0.546-2.904c-0.138-0.638-0.941-0.487-1.144,0
		c-0.221,0.532-0.365,1-0.463,1.429c-1.157-0.321-3.812-3.405-4.164-4.207c-0.307-0.699-1.329-0.095-1.024,0.599
		c0.959,2.182,2.775,4.296,5.076,5.099c0.438,3.009,5.587,1.522,7.61-0.756c1.214,0.282,2.584-0.219,3.559-1.563
		C67.422,231.561,69.072,232.432,68.722,233.987z M112.424,212.976c0.049-0.125,0.1-0.249,0.159-0.37
		C112.606,212.939,112.576,213.122,112.424,212.976z M122.605,205.918c-0.277-0.106-0.541-0.208-0.789-0.307
		C122.232,205.512,122.493,205.648,122.605,205.918z M94.957,196.407c0.104-0.111,0.142-0.233,0.151-0.354
		c0.66,0.626,1.34,1.219,2.046,1.77c-0.077,0.092-0.134,0.207-0.134,0.361c0,0.586,0,1.172,0,1.758c0,0.765,1.186,0.765,1.186,0
		c0-0.449,0-0.899,0-1.348c1.062,0.729,2.189,1.35,3.403,1.83c-0.169,0.169-0.254,0.425-0.114,0.697
		c0.235,0.459,0.545,0.984,1.068,1.151c0.63,0.202,1.182-0.174,1.621-0.592c0.408-0.39,0.059-0.943-0.374-0.998
		c0.171-0.305,0.109-0.753-0.327-0.872c-1.924-0.525-3.6-1.432-5.14-2.567c0.36-0.616,0.773-1.198,1.1-1.834
		c0.349-0.679-0.674-1.279-1.024-0.599c-0.303,0.589-0.677,1.133-1.018,1.697c-0.689-0.568-1.356-1.176-2.004-1.817
		c-0.004-0.004-0.008-0.004-0.012-0.008c0.124-0.093,0.206-0.24,0.186-0.452c-0.232-2.476,0.559-4.274,2.47-5.604
		c0.11,0.694,0.232,1.386,0.298,2.089c0.038,0.4,0.348,0.653,0.751,0.572c2.733-0.549,5.289,0.029,6.896,2.309
		c-0.841,0.478-1.668,0.98-2.52,1.44c-0.384,0.208-0.388,0.818,0,1.024c2.164,1.153,4.702,2.718,3.302,5.779
		c-0.194,0.424,0.117,0.812,0.46,0.89c-0.03,0.058-0.048,0.119-0.059,0.183c-0.327,0.045-0.609,0.307-0.461,0.702
		c0.76,2.018,1.064,4.908-1.978,4.316c-2.09-0.407-3.671-2.279-4.347-4.192c-0.19-0.536-0.979-0.594-1.144,0
		c-0.45,1.617-0.92,3.08-0.952,4.686c-2.182-1.873-2.342-4.789-2.716-7.604c-0.044-0.334-0.354-0.737-0.751-0.572
		c-0.553,0.23-0.746,0.315-1.005,0.52C93.043,199.153,93.648,197.813,94.957,196.407z M102.65,200.788
		c0.173,0.054,0.341,0.118,0.517,0.166c0.021,0.006,0.037,0,0.058,0.004c-0.102,0.098-0.236,0.215-0.278,0.195
		C102.821,201.092,102.727,200.94,102.65,200.788z M61.501,229.085c0.559,0.361,0.78,0.773,0.762,1.196
		C61.942,229.997,61.674,229.597,61.501,229.085z M77.116,197.306c-0.037-0.686-0.936-0.785-1.165-0.158
		c-3.043,1.35-4.529,0.801-4.456-1.646c0.038-0.783,0.198-1.537,0.482-2.262c0.303-0.927,0.924-1.891,0.952-2.891
		c0.013-0.466,0.061-1.052-0.213-1.472c-0.132-0.232-0.28-0.453-0.446-0.661c-0.199-0.171-0.398-0.341-0.597-0.512
		c-1.125-0.819,0.059-1.141,3.553-0.964c0.093,0.079,0.193,0.115,0.293,0.132c0.017,0.105,0.055,0.21,0.146,0.307
		c0.674,0.719,1.228,1.522,1.71,2.372c-0.017,0.006-0.035,0.009-0.053,0.015c-0.094,0.032-0.168,0.088-0.256,0.128
		c-0.173-0.047-0.362-0.017-0.522,0.162c-0.116,0.129-0.222,0.265-0.324,0.404c-0.443,0.414-0.799,0.926-1.087,1.474
		c-0.303,0.576,0.465,1.239,0.932,0.719c0.36-0.401,0.637-0.863,0.951-1.296c0.252-0.227,0.559-0.396,0.924-0.515
		c0.887,1.89,1.459,3.958,1.966,5.943c0.01,0.038,0.031,0.061,0.045,0.094c-0.144,0.424-0.189,0.86,0.107,1.157
		c0.563,0.563,1.318-0.155,1.718-0.549c0.392-0.386,0.067-0.921-0.348-0.995c0.001-0.001,0.001-0.002,0.002-0.004
		c0.24-0.487-0.209-0.922-0.61-0.891c-0.453-1.702-0.986-3.419-1.719-5.033c0.517-0.1,1.03-0.204,1.535-0.394
		c0.709-0.267,0.402-1.414-0.315-1.144c-0.575,0.217-1.172,0.322-1.766,0.438c-0.565-1.05-1.227-2.043-2.051-2.922
		c-0.008-0.009-0.018-0.01-0.027-0.019c0.119-0.095,0.202-0.24,0.2-0.44c-0.035-5.077,4.226-1.866,6.155,0.048
		c1.007,0.999,1.835,2.161,2.539,3.387c0.825,1.437,0.958,1.313-0.218,1.705c-0.358,0.119-0.559,0.528-0.354,0.871
		c0.509,0.851,0.971,1.725,1.442,2.595c-0.848-0.262-1.702-0.502-2.529-0.83c-0.398-0.158-0.895,0.328-0.73,0.73
		c0.407,0.986,0.765,1.963,1.08,2.982c0.197,0.637,0.506,7.679-1.018,6.94C79.762,202.72,77.334,201.387,77.116,197.306z
		 M81.042,197.253c-0.003-0.001-0.007-0.001-0.009,0.01c0.001-0.006,0.004-0.011,0.005-0.017
		C81.039,197.247,81.041,197.251,81.042,197.253z M77.29,207.648c-0.041,0.104-0.061,0.222-0.021,0.361
		c0.09,0.315,0.184,0.629,0.275,0.944c-1.329-0.232-2.719,0.836-3.637,1.994c-0.38,0.48,0.137,1.374,0.719,0.932
		c0.98-0.744,2.013-1.319,3.094-1.609c0.097,0.064,0.189,0.138,0.277,0.223c0.228,0.754,0.466,1.503,0.719,2.247
		c-0.023,0.029-0.05,0.048-0.069,0.085c-0.495,0.939-1.263,1.697-1.758,2.636c-0.356,0.676,0.668,1.276,1.024,0.599
		c0.363-0.689,0.872-1.281,1.313-1.918c0.356,0.945,0.735,1.882,1.178,2.796c0.089,0.184,0.219,0.271,0.358,0.296
		c0,0.241,0,0.482,0,0.723c0,0.047,0,0.093,0,0.14c0,0.765,1.186,0.765,1.186,0c0-0.047,0-0.093,0-0.14c0-1.172,0-2.343,0-3.515
		c0-0.546-0.6-0.695-0.946-0.461c-0.372-1.409-0.939-2.768-1.82-3.903c0.75-0.003,1.519,0.133,2.313,0.483
		c0.693,0.306,1.297-0.716,0.599-1.024c-1.141-0.503-2.25-0.686-3.328-0.621c-0.118-0.407-0.237-0.814-0.354-1.221
		c-0.008-0.028-0.026-0.045-0.036-0.07c0.009-0.021,0.03-0.032,0.036-0.054c0.412-1.349,0.705-2.661,0.846-4.044
		c1.127,0.801,2.484,1.47,3.994,2.202c0.254,0.123,0.552,0.083,0.736-0.128c0.01,0.011,0.012,0.024,0.022,0.035
		c1.533,1.595,2.866,3.254,3.954,5.193c2.214,3.943-0.311,4.693-3.535,4.339c-0.429-0.047-0.765,0.547-0.512,0.893
		c1.304,1.783,1.907,3.451,2.098,5.67c0.077,0.9,0.205,4.493-1.264,4.258c-3.701-0.591-5.405-3.994-5.901-7.31
		c-0.071-0.479-0.694-0.52-0.991-0.262c-1.9,1.651-2.723,2.075-4.052-0.155c-1.064-1.784-1.406-4.105-1.594-6.126
		c-0.137-1.47,0.03-2.946,0.342-4.381C73.232,204.649,75.879,205.174,77.29,207.648z M67.156,224.914
		c-0.106-2.326-0.213-4.651-0.319-6.977c0.296-0.35,0.18-0.838-0.262-0.991c-3.854-1.333-4.525-8.272,0.563-6.765
		c0.542,0.161,1.048-0.605,0.577-0.991c-1.921-1.115-1.889-2.906,0.099-5.372c1.829-0.274,3.246,0.302,4.257,1.716
		c-0.052,0.122-0.107,0.229-0.156,0.363c-1.858,5.053-1.031,11.673,2.871,15.555c0.19,0.189,0.487,0.226,0.719,0.093
		c0.873-0.501,1.643-1.029,2.399-1.628c0.25,1.143,0.63,2.176,1.148,3.085c-1.408,3.183-6.11,5.5-8.606,2.125
		c-0.45-0.608-1.48-0.017-1.024,0.599c2.85,3.852,8.331,2.177,10.392-1.601c0.525,0.657,1.141,1.226,1.852,1.699
		c-0.256-0.146-0.614-0.134-0.821,0.182c-0.994,1.52-1.605,3.013-2.983,4.274c-0.156,0.143-0.204,0.378-0.153,0.577
		c-0.495,1.681-0.99,3.361-1.485,5.042c-0.179,0.103-0.296,0.305-0.294,0.512c0.119,1.127-0.103,2.177-0.665,3.151
		c-1.912,0.219-2.613-0.392-2.103-1.833c0.021-0.248-0.195-0.522-0.435-0.572c-2.516-1.443-3.256-3.104-2.222-4.982
		c0.109-0.295-0.119-0.661-0.414-0.73c-0.907-1.906-1.814-3.813-2.721-5.719C67.513,225.406,67.439,225.12,67.156,224.914z"/>
	<path fill="#a9907a" d="M74.045,222.922c0.727-0.23,0.416-1.375-0.315-1.144c-0.714,0.226-1.692,0.476-2.334-0.067
		c-0.622-0.526-0.561-1.56-0.452-2.279c0.114-0.748-1.029-1.07-1.144-0.315c-0.182,1.198-0.169,2.529,0.757,3.433
		C71.479,223.45,72.929,223.275,74.045,222.922z"/>
	<path fill="#a9907a" d="M76.822,232.089c0.69-0.329,0.088-1.352-0.599-1.024c-0.526,0.251-1.072,0.347-1.385-0.227
		c-0.367-0.671-1.392-0.073-1.024,0.599C74.462,232.622,75.725,232.613,76.822,232.089z"/>
	<path fill="#a9907a" d="M69.473,213.143c-0.396-0.397-0.688-0.753-0.705-1.338c-0.023-0.763-1.209-0.766-1.186,0
		c0.027,0.906,0.429,1.552,1.052,2.177C69.175,214.524,70.014,213.685,69.473,213.143z"/>
	<path fill="#a9907a" d="M50.887,185.391c0.976,2.047,3.216,1.948,5.143,1.503c0.745-0.172,0.429-1.316-0.315-1.144
		c-1.52,0.351-3.619,0.578-3.896-1.497c-0.156-1.166,0.493-2.382,1.051-3.344c0.132-0.228,0.099-0.533-0.093-0.719
		c-0.339-0.328-0.66-0.601-1-0.833c1.318-0.492,2.581-0.97,4.095-0.791c0.322,0.038,0.593-0.299,0.593-0.593c0-0.685,0-1.37,0-2.054
		c3.6,0.034,6.325,2.422,4.986,6.29c-0.135,0.391,0.136,0.653,0.453,0.706c0.076,0.365,0.457,0.666,0.857,0.403
		c2.793-1.834,5.367-0.362,6.658,2.423c0.321,0.694,1.344,0.091,1.024-0.599c-1.47-3.171-4.584-4.805-7.685-3.197
		c1.174-4.469-2.404-7.476-6.887-7.202c-0.323,0.02-0.593,0.255-0.593,0.593c0,0.671,0,1.342,0,2.013
		c-1.885-0.032-3.456,0.825-5.276,1.37c-0.539,0.161-0.594,1.013,0,1.144c2.494,0.551,1.041,1.69,0.703,3.275
		c-0.016,0.076-0.022,0.16-0.034,0.239c-0.341-0.095-0.679-0.146-1.017-0.139c0.27-0.246,0.34-0.72-0.074-0.945
		c-1.611-0.875-3.065-1.963-4.7-2.784c3.12-4.93-3.858-8.946-8.499-7.381c-0.278,0.094-0.541,0.418-0.414,0.73
		c0.606,1.496,0.634,3.096,1.378,4.535c0.351,0.68,1.375,0.08,1.024-0.599c-0.596-1.152-0.683-2.452-1.058-3.68
		c3.607-0.69,9.573,2.089,6.278,6.196c-0.214,0.266-0.262,0.762,0.12,0.932c1.882,0.835,3.473,2.098,5.272,3.076l0,0
		c-0.29,0.063-0.582,0.156-0.877,0.293c-0.037-0.458-0.53-0.595-0.869-0.414c0.003-0.18-0.075-0.356-0.291-0.464
		c-1.359-0.678-2.719-1.325-4.127-1.765c-0.006-0.071-0.019-0.144-0.054-0.219c-0.43-0.912-0.512-1.976-0.819-2.934
		c-0.233-0.725-1.378-0.415-1.144,0.315c0.263,0.82,0.396,1.677,0.66,2.493c-1.018-0.205-2.066-0.288-3.164-0.169
		c-0.752,0.082-0.76,1.269,0,1.186c1.643-0.179,3.149,0.106,4.607,0.609c-0.111,0.042-0.215,0.116-0.286,0.256
		c-0.324,0.629-0.728,1.139-1.225,1.637c-0.541,0.542,0.298,1.38,0.839,0.839c0.564-0.564,1.044-1.165,1.411-1.878
		c0.116-0.226,0.073-0.438-0.039-0.602c0.921,0.362,1.828,0.798,2.743,1.254c0.217,0.108,0.42,0.07,0.581-0.031
		c-0.112,2.807-1.276,5.073-3.832,6.178c-0.276-0.905-0.757-1.716-1.211-2.565c-0.135-0.252-0.411-0.313-0.67-0.272
		c-2.086,0.329-4.206,0.025-5.921-1.197c0.537-1.169,0.573-2.548,0.939-3.785c0.07-0.237-0.038-0.561-0.273-0.67
		c-0.602-0.28-1.176-0.403-1.775-0.464c0.486-0.203,0.942-0.436,1.336-0.709c0.143-0.099,0.216-0.23,0.245-0.367
		c0.375-0.012,0.781,0.003,1.213,0.009c0.765,0.009,0.764-1.177,0-1.186c-1.831-0.023-3.326,0.049-4.107,1.449
		c-2.925,0.864-6.893,0.521-7.511-2.471c0.362,0.199,0.712,0.417,1.042,0.679c0.06,0.042,0.109,0.089,0.171,0.13
		c0.557,0.371,1.243-0.505,0.719-0.932c-0.04-0.032-0.082-0.059-0.122-0.091c0.001-0.001,0.001-0.001,0.002-0.002
		c-2.016-1.343-2.715-3.296-2.782-5.639c-0.022-0.763-1.208-0.766-1.186,0c0.047,1.644,0.394,3.106,1.146,4.358
		c-0.149,0.1-0.259,0.261-0.267,0.475c-0.171,4.476,4.546,5.645,8.369,4.831c0.009,0.315,0.226,0.595,0.572,0.595
		c0.685,0.001,1.31,0.014,1.938,0.214c-0.197,0.982-0.258,2.13-0.683,3.023c-0.377,0.059-0.674,0.468-0.481,0.818
		c-0.135,0.488,0.406,0.989,0.828,0.711c1.174,0.826,2.457,1.266,3.948,1.473c0.728,0.101,1.449,0.068,2.178,0.009
		c0.815-0.065,1.268,1.957,1.365,2.542c0.051,0.307,0.446,0.51,0.73,0.414c3.206-1.079,4.84-3.565,5.19-6.742
		c0.17,0.144,0.411,0.209,0.664,0.092c0.654-0.303,1.313-0.307,1.967-0.024C50.712,184.887,50.775,185.155,50.887,185.391z"/>
	<path fill="#a9907a" d="M62.047,188.643c0.416-0.801,0.984-1.057,1.587-1.01c0.792,0.519,1.611,0.999,2.484,1.398
		c0.578,0.264,1.245-0.441,0.719-0.932c-0.836-0.78-1.778-1.466-2.809-1.629c-0.457-0.306-0.906-0.622-1.349-0.95
		c0.115-0.413,0.225-0.828,0.356-1.238c0.234-0.731-0.912-1.041-1.144-0.315c-0.084,0.261-0.15,0.526-0.227,0.789
		c-1.087-0.835-2.164-1.686-3.296-2.462c-0.633-0.434-1.225,0.595-0.599,1.024c1.219,0.835,2.375,1.759,3.548,2.654
		c-0.213,0.83-0.394,1.666-0.563,2.505c-0.248,0.58-0.401,1.223-0.495,1.855c-0.584,0.661-0.986,1.703-1.025,2.579
		c-0.035,0.781,1.098,0.739,1.186,0c-0.013,0.108,0.002,0.091,0.054,0.043c0.198,0.299,0.449,0.571,0.691,0.816
		c0.539,0.544,1.378-0.295,0.839-0.839c-0.197-0.199-0.662-0.601-0.701-0.888c0.162-0.966,0.336-1.927,0.523-2.884
		C61.896,188.987,61.959,188.813,62.047,188.643z"/>
	<path fill="#a9907a" d="M59.847,204.316c0.691,0.652,1.431,1.109,2.397,1.162c0.926,0.051,1.763-0.564,2.397-1.162
		c0.557-0.526-0.283-1.364-0.839-0.839c-1.061,1.002-2.054,1.002-3.116,0C60.13,202.952,59.29,203.79,59.847,204.316z"/>
	<path fill="#a9907a" d="M47.789,166.545c4.019-0.372,7.732-4.436,9.296-7.861c1.748-3.827,0.51-9.795-2.023-13.022
		c-2.897-3.692-6.315-3.092-9.264-0.38c0.104-3.119,0.337-6.232,0.388-9.354c0.003,0,0.005,0.001,0.008,0
		c2.859-0.438,5.593-1.155,8.472-0.439c0.743,0.185,1.057-0.959,0.315-1.144c-3.097-0.77-6.024-0.033-9.103,0.439
		c-0.292,0.045-0.419,0.243-0.427,0.463c-0.238,0.056-0.443,0.233-0.448,0.548c-0.053,3.666-0.38,7.318-0.439,10.984
		c-0.008,0.497,0.666,0.813,1.013,0.419c6.98-7.909,11.821,2.927,10.872,9.528c-0.698,4.848-12.323,13.16-11.158,4.709
		c0.103-0.748-1.04-1.071-1.144-0.315C43.753,163.978,44.315,166.867,47.789,166.545z"/>
	<path fill="#a9907a" d="M76.526,173.108c6.603-4.073,5.348-16.749,4.485-23.067c-0.86-6.294-4.198-17.426-12.723-14.379
		c-0.715,0.255-0.407,1.402,0.315,1.144c12.974-4.637,15.87,30.006,6.863,35.563c-6.076,3.748-8.424-11.072-8.899-14.267
		c-0.92-6.183-2.043-15.366,1.073-21.129c0.364-0.673-0.66-1.272-1.024-0.599C63.298,142.508,64.448,180.56,76.526,173.108z"/>
	<path fill="#a9907a" d="M223.236,226.462c0.198-0.74-0.946-1.054-1.144-0.315c-0.56,2.09-1.262,4.13-2.01,6.153
		c-0.161,0.203-0.313,0.412-0.474,0.615c-0.194,0.244-0.161,0.527-0.028,0.738c-1.6,4.202-3.351,8.349-4.518,12.705
		c-0.198,0.74,0.946,1.054,1.144,0.315c1.27-4.737,3.224-9.229,4.929-13.81c6.704-8.499,12.908-17.348,18.738-26.47
		c0.413-0.647-0.614-1.241-1.024-0.599c-5.163,8.078-10.629,15.933-16.469,23.528C222.686,228.377,222.977,227.425,223.236,226.462z
		"/>
	<path fill="#a9907a" d="M232.902,219.432c0.249-0.726-0.897-1.035-1.144-0.315c-0.641,1.869-1.336,3.713-2.071,5.538
		c-3.139,4.817-6.268,9.641-9.292,14.531c-0.404,0.653,0.623,1.248,1.024,0.599c1.787-2.89,3.609-5.757,5.449-8.614
		c-1.504,3.285-3.096,6.532-4.716,9.773c-0.341,0.682,0.682,1.283,1.024,0.599c2.686-5.376,5.307-10.762,7.554-16.318
		c4.263-6.542,8.549-13.069,12.657-19.71c0.404-0.653-0.623-1.248-1.024-0.599c-3.149,5.092-6.41,10.113-9.68,15.128
		C232.754,219.839,232.831,219.637,232.902,219.432z"/>
	<path fill="#a9907a" d="M237.03,219.117c-0.132,0.735-0.288,1.459-0.457,2.177c-2.121,3.357-4.308,6.674-6.513,9.983
		c-0.426,0.639,0.602,1.232,1.024,0.599c1.467-2.201,2.925-4.405,4.362-6.621c-0.98,2.957-2.225,5.818-3.629,8.658
		c-0.338,0.683,0.685,1.285,1.024,0.599c2.04-4.129,3.774-8.3,4.837-12.749c2.974-4.714,5.812-9.509,8.344-14.492
		c0.346-0.68-0.678-1.281-1.024-0.599c-2.135,4.201-4.485,8.269-6.951,12.266C237.765,218.594,237.129,218.566,237.03,219.117z"/>
	<path fill="#a9907a" d="M266.907,185.725c-1.01,7.137-3.471,13.781-6.97,20.069c-0.372,0.669,0.652,1.267,1.024,0.599
		c3.544-6.369,6.065-13.114,7.09-20.353C268.157,185.292,267.014,184.97,266.907,185.725z"/>
	<path fill="#a9907a" d="M272.18,183.089c-1.733,5.203-3.429,10.407-4.394,15.817c-0.133,0.748,1.01,1.068,1.144,0.315
		c0.964-5.41,2.661-10.614,4.394-15.817C273.566,182.676,272.42,182.367,272.18,183.089z"/>
	<path fill="#a9907a" d="M165.239,267.763c1.032-2.984,2.483-5.803,3.515-8.787c0.251-0.725-0.896-1.034-1.144-0.315
		c-1.032,2.984-2.483,5.803-3.515,8.787C163.844,268.173,164.99,268.481,165.239,267.763z"/>
	<path fill="#a9907a" d="M181.875,238.906c0.338-0.683-0.685-1.284-1.024-0.599c-1.515,3.059-2.995,6.504-4.863,9.634
		c0.254-0.995,0.485-2.001,0.674-3.026c0.138-0.748-1.005-1.067-1.144-0.315c-0.417,2.263-1.012,4.446-1.724,6.578
		c-1.782,2.266-3.922,4.161-6.649,5.31c-0.694,0.292-0.389,1.441,0.315,1.144c2.057-0.867,3.787-2.11,5.295-3.591
		c-2.373,6.07-5.617,11.769-8.601,17.658c-0.345,0.681,0.679,1.281,1.024,0.599c3.486-6.881,7.317-13.488,9.737-20.721
		C177.816,247.776,179.805,243.085,181.875,238.906z"/>
	<path fill="#a9907a" d="M182.754,250.33c2.021-3.062,3.93-6.193,5.792-9.352c-0.987,5.097-2.745,9.857-5.938,14.026
		c-0.465,0.608,0.566,1.197,1.024,0.599c3.417-4.462,5.237-9.585,6.211-15.08c0.076-0.431-0.27-0.71-0.603-0.734
		c1.366-2.336,2.715-4.683,4.058-7.033c0.38-0.665-0.645-1.263-1.024-0.599c-3.243,5.675-6.494,11.348-10.065,16.824
		c0.628-2.124,1.131-4.294,1.45-6.536c2.004-3.253,4.019-6.5,6.125-9.689c0.423-0.64-0.605-1.234-1.024-0.599
		c-2.11,3.195-4.128,6.447-6.135,9.705c-0.006,0.01-0.012,0.019-0.018,0.029c-2.888,4.689-5.75,9.395-8.785,13.991
		c-0.423,0.641,0.605,1.234,1.024,0.599c2.468-3.737,4.816-7.55,7.161-11.365c-1.389,6.587-4.289,12.631-7.307,18.675
		c-0.341,0.682,0.683,1.283,1.024,0.599c2.297-4.599,4.492-9.186,6.057-14C182.023,250.645,182.499,250.716,182.754,250.33z"/>
	<path fill="#a9907a" d="M217.903,231.876c4.303-8.423,9.757-16.182,14.06-24.605c0.347-0.68-0.676-1.28-1.024-0.599
		c-4.303,8.423-9.757,16.182-14.06,24.605C216.532,231.957,217.555,232.558,217.903,231.876z"/>
	<path fill="#a9907a" d="M269.83,173.58c0-0.765-1.186-0.765-1.186,0c-0.001,3.784,0.008,7.56-0.858,11.266
		c-0.174,0.744,0.97,1.06,1.144,0.315C269.82,181.352,269.829,177.472,269.83,173.58z"/>
	<path fill="#a9907a" d="M174.912,126.495c-6.095,3.38-12.684,5.694-18.454,9.666c-0.626,0.431-0.033,1.459,0.599,1.024
		c5.77-3.972,12.358-6.286,18.454-9.666C176.18,127.148,175.582,126.123,174.912,126.495z"/>
	<path fill="#a9907a" d="M37.549,118.586c-1.523-0.784-2.87-1.852-4.394-2.636c-0.679-0.349-1.279,0.674-0.599,1.024
		c1.524,0.784,2.87,1.852,4.394,2.636C37.629,119.96,38.229,118.936,37.549,118.586z"/>
	<path fill="#a9907a" d="M46.616,111.702c1.878,0.99,3.394,2.526,5.272,3.515c0.676,0.356,1.276-0.668,0.599-1.024
		c-1.878-0.989-3.394-2.526-5.272-3.515C46.539,110.321,45.939,111.345,46.616,111.702z"/>
	<path fill="#a9907a" d="M62.313,113.366c0.553,0.528,1.393-0.309,0.839-0.839c-1.065-1.018-2.452-1.62-3.515-2.636
		c-0.553-0.528-1.393,0.309-0.839,0.839C59.863,111.748,61.251,112.35,62.313,113.366z"/>
	<path fill="#a9907a" d="M22.928,130.85c0.221,0.137,0.534,0.259,0.547,0.551c0.036,0.762,1.222,0.765,1.186,0
		c-0.056-1.196-1.185-1.463-1.931-2.177c-0.553-0.529-1.393,0.309-0.839,0.839C22.208,130.365,22.557,130.619,22.928,130.85z"/>
	<path fill="#a9907a" d="M91.01,298.668c-0.724-0.254-1.032,0.893-0.315,1.144c2.711,0.949,5.032,2.634,6.675,5
		c0.433,0.623,1.462,0.031,1.024-0.599C96.565,301.58,94.029,299.725,91.01,298.668z"/>
	<path fill="#a9907a" d="M106.969,305.758c-1.682-0.898-2.705-2.614-4.394-3.515c-0.675-0.36-1.274,0.664-0.599,1.024
		c1.682,0.898,2.705,2.614,4.394,3.515C107.045,307.142,107.644,306.118,106.969,305.758z"/>
	<path fill="#a9907a" d="M103.454,299.607c-0.681-0.345-1.281,0.679-0.599,1.024c2.935,1.486,5.786,3.184,7.696,5.938
		c0.433,0.624,1.461,0.032,1.024-0.599C109.541,303.036,106.591,301.195,103.454,299.607z"/>
	<path fill="#a9907a" d="M106.969,298.728c-0.681-0.345-1.281,0.678-0.599,1.024c3.197,1.62,6.103,3.539,8.667,6.058
		c0.546,0.536,1.385-0.302,0.839-0.839C113.242,302.383,110.257,300.394,106.969,298.728z"/>
	<path fill="#a9907a" d="M115.757,297.849c-0.653-0.403-1.248,0.624-0.599,1.024c4.25,2.621,7.791,6.063,11.304,9.573
		c0.542,0.541,1.38-0.298,0.839-0.839C123.717,304.026,120.09,300.521,115.757,297.849z"/>
	<path fill="#a9907a" d="M200.236,264.55c-0.541-0.542-1.38,0.297-0.839,0.839c0.879,0.879,1.757,1.757,2.636,2.636
		c0.541,0.541,1.38-0.297,0.839-0.839C201.993,266.307,201.115,265.428,200.236,264.55z"/>
	<path fill="#a9907a" d="M210.661,257.427c-0.676-0.356-1.276,0.667-0.599,1.024c1.993,1.051,3.575,2.724,5.152,4.301
		c0.542,0.541,1.38-0.298,0.839-0.839C214.407,260.268,212.742,258.524,210.661,257.427z"/>
	<path fill="#a9907a" d="M273.916,176.216c0,0.765,1.187,0.765,1.186,0c-0.001-2.478-0.144-4.812-0.9-7.188
		c-0.231-0.726-1.377-0.416-1.144,0.315C273.783,171.618,273.915,173.847,273.916,176.216z"/>
	<path fill="#a9907a" d="M173.754,204.848c5.943-2.664,11.174-6.771,17.433-8.728c0.728-0.228,0.417-1.373-0.315-1.144
		c-6.363,1.989-11.676,6.14-17.716,8.847C172.458,204.136,173.062,205.158,173.754,204.848z"/>
	<path fill="#a9907a" d="M159.694,116.974c1.959-0.979,3.934-1.871,6.01-2.576c0.72-0.245,0.411-1.391-0.315-1.144
		c-2.173,0.738-4.242,1.671-6.293,2.696C158.411,116.292,159.012,117.315,159.694,116.974z"/>
	<path fill="#a9907a" d="M143.278,89.588c-6.376,3.643-12.772,7.24-19.332,10.545c-0.683,0.344-0.083,1.368,0.599,1.024
		c6.56-3.305,12.956-6.902,19.332-10.545C144.54,90.233,143.943,89.207,143.278,89.588z"/>
	<path fill="#a9907a" d="M238.481,187.354c0.586,0,1.172,0,1.758,0c0.765,0,0.765-1.186,0-1.186c-0.586,0-1.172,0-1.758,0
		C237.716,186.168,237.716,187.354,238.481,187.354z"/>
	<path fill="#a9907a" d="M265.001,144.275c2.508-0.79,5.271-0.937,7.292-2.789c0.565-0.518-0.276-1.354-0.839-0.839
		c-1.821,1.669-4.506,1.771-6.768,2.484C263.959,143.36,264.269,144.505,265.001,144.275z"/>
	<path fill="#a9907a" d="M102.869,173.58c0-6.444,0-12.888,0-19.332c0-0.765-1.186-0.765-1.186,0c0,6.444,0,12.888,0,19.332
		C101.683,174.345,102.869,174.345,102.869,173.58z"/>
	<path fill="#a9907a" d="M98.168,247.394c0,4.98,0,9.959,0,14.939c0,0.765,1.186,0.765,1.186,0c0-4.98,0-9.959,0-14.939
		C99.354,246.629,98.168,246.629,98.168,247.394z"/>
	<path fill="#a9907a" d="M36.656,199.064c0,6.737,0,13.474,0,20.211c0,0.765,1.186,0.765,1.186,0c0-6.737,0-13.474,0-20.211
		C37.843,198.299,36.656,198.299,36.656,199.064z"/>
	<path fill="#a9907a" d="M325.984,0H201.438v59.938c-3.51,0.172-7.229-0.49-10.403-1.985c-0.206-0.097-0.399-0.065-0.557,0.024
		c-0.012-0.007-0.016-0.017-0.029-0.024c-0.539-0.287-0.964-0.712-1.252-1.252c-0.084-0.158-0.206-0.241-0.337-0.275
		c0.131-0.21,0.158-0.487-0.048-0.724c-0.886-1.017-2.156-1.905-3.412-0.923c-1.101,0.861-1.62,2.684-3.023,3.113
		c-0.221,0.068-0.337,0.223-0.384,0.396c-2.503-0.712-5.07-1.035-7.66-1.296c-0.031-0.003-0.053,0.008-0.082,0.008
		c-0.636-0.446-1.169-0.98-1.621-1.609c0.17-0.128,0.281-0.335,0.224-0.6c-0.336-1.563-1.535-2.492-3.135-2.177
		c-1.621,0.32-2.664,1.945-2.716,3.506c0,0.003,0.001,0.005,0.001,0.007c-0.094-0.002-0.192,0.013-0.293,0.066
		c-1.304,0.687-2.352,1.749-3.515,2.636c-0.085,0.065-0.14,0.142-0.181,0.223c-0.06,0.019-0.113,0.046-0.159,0.086
		c-0.291,0.124-0.595,0.168-0.904,0.184c-0.092-0.077-0.206-0.134-0.36-0.135c-5.77-0.024-11.843-0.47-17.293,1.779
		c-0.697,0.288-0.392,1.436,0.315,1.144c5.188-2.14,10.935-1.786,16.447-1.741c0.094,0.088,0.218,0.151,0.385,0.151
		c0.616-0.001,1.189-0.059,1.755-0.261c3.112,1.163,6.488,1.367,9.765,1.741c4.814,0.549,9.424,1.72,14.073,2.994
		c5.083,1.393,9.885,3.537,14.4,6.19v0.95c-0.652-0.258-1.311-0.502-1.985-0.716c-0.837-0.266-4.782-0.04-5.056-0.761
		c-0.34-0.896-0.814-1.252-1.329-1.282c0.077-0.121,0.153-0.241,0.231-0.362c0.204-0.314,0.009-0.788-0.354-0.871
		c-7.154-1.65-13.036-4.006-20.501-2.66c-0.724,0.131-1.73,0.245-2.349,0.773c-1.1,0.938-2.761-0.37-3.963-0.477
		c-2.157-0.193-3.367,0.087-4.613,1.758c-0.159,0.213-0.077,0.543,0.093,0.719c2.89,2.994,7.134,3.444,10.751,5.136
		c-1.183,0.157-2.259,0.607-2.935,1.761c-1.037,1.771,0.384,3.074,1.737,3.997c1.104,0.753,1.303,2.779,2.688,2.85
		c1.809,0.093,3.48,0.686,5.301,0.682c2.257-0.005,1.513-0.735,3.016,0.708c3.465,3.328,7.711,6.574,11.881,9.288
		c-0.856-0.275-1.757-0.467-2.729-0.537c-0.604-0.043-0.789,0.822-0.299,1.105c3.795,2.199,3.282,7.869,7.826,9.406
		c0.873,0.295,1.728,0.468,2.59,0.589v8.186c-1.243-0.906-2.274-2.175-2.615-3.518c1.097-0.383,1.529-1.322-0.052-2.706
		c-0.356-0.311-0.827-0.165-0.991,0.262c-0.189,0.493-0.277,0.99-0.29,1.484c-0.313,0.183-0.778,0.082-1.408-0.323
		c-1.943-0.477-4.121-2.938-3.368-5.004c0.38-0.254,0.699-0.705,0.937-1.406c0.203-0.596-0.578-0.95-0.991-0.577
		c-0.096,0.087-0.168,0.178-0.253,0.266c-3,0.317-4.52-1.171-4.55-4.479c-0.034-0.457-0.082-0.911-0.145-1.365
		c-0.244-1.366-0.666-2.5-1.269-3.732c-0.442-0.905-1.534-2.096-2.664-1.931c-2.138,0.313-2.17,2.852-0.374,3.678
		c0.69,0.317,1.293-0.705,0.599-1.024c0.471-0.041,0.943-0.083,1.415-0.124c0.799,1.395,1.216,2.894,1.251,4.498
		c0.114,1.111,0.175,1.408,0.423,2.49c0.275,1.199,1.388,2.414,2.377,3.054c0.684,0.443,1.337,0.764,1.927,0.873
		c-0.373,2.422,1.991,4.983,4.369,5.926c0.582,0.231,1.231,0.339,1.835,0.334c0.43,1.934,1.997,3.7,3.836,4.777v10.642
		c-6.076-10.869-13.666-20.957-22.266-29.715c-6.663-6.785-14.413-12.344-22.488-17.318c-7.824-4.819-16.456-8.98-25.668-10.081
		c0.011-0.033,0.028-0.063,0.036-0.098c0.312-1.262-0.907-2.249-2.073-2.729c0.607,0.045,1.224,0.19,1.844,0.433
		c0.183,0.072,0.339,0.048,0.458-0.03c3.969-0.848,7.929-1.641,12.002-1.706c0.764-0.012,0.765-1.199,0-1.186
		c-4.163,0.067-8.21,0.872-12.267,1.738c-2.008-0.751-4.145-0.619-5.9,0.686c-0.089,0.066-0.146,0.147-0.187,0.232
		c-0.078-0.017-0.164-0.018-0.257,0.001c-3.073,0.631-6.313,2.397-9.209,0.353c-0.003-0.002-0.005-0.002-0.008-0.004
		c0.001-0.025,0.011-0.043,0.009-0.07c-0.19-2.634-3.174-4.111-5.595-3.766c-1.327,0.189-2.405,0.908-3.181,1.993
		c-0.846,1.183-0.65,3.021-0.829,4.451c-2.262,0.88-4.406,2.027-6.671,2.901c-0.053,0.021-0.09,0.054-0.132,0.084
		c-0.163-0.11-0.373-0.148-0.595-0.024c-5.358,2.985-11.295,4.834-16.872,7.377c-3.374,1.539-7.283,4.527-11.232,5.283
		c-0.145-0.044-0.292-0.08-0.437-0.125c-0.306-0.096-0.531,0.053-0.645,0.27c-0.911,0.073-1.821,0.006-2.725-0.238
		c0.002-0.064,0-0.13-0.024-0.203c-0.786-2.385-3.363-3.328-5.692-2.909c-1.083,0.195-2.344,1.102-2.73,2.151
		c-0.568,1.543,0.274,3.345-1.53,4.211c-0.169,0.081-0.258,0.204-0.29,0.337c-0.163-0.105-0.369-0.148-0.589-0.044
		c-6.171,2.894-12.542,5.341-18.443,8.782c-5.973,2.014-11.536,5.257-16.256,9.863c-8.25,8.052-12.347,18.298-15.962,28.981
		c-2.075,6.13-3.948,12.281-4.829,18.708c-0.38,2.777-0.14,5.61-0.024,8.396c0.162,3.868-0.225,7.731-0.054,11.605
		c0.591,13.354,4.693,26.618,9.097,39.124c4.3,12.21,8.566,24.508,15.499,35.533c2.323,3.694,5.026,7.149,7.585,10.68
		c0.049,1.304,0.248,2.61,0.623,3.899c-0.597,3.123-1.182,6.165-0.892,9.295c-2.348,1.042-3.994,3.129-5.535,5.107
		c-0.137,0.176-0.153,0.372-0.106,0.548c-3.151,0.758-5.471,2.562-6.637,5.645c-0.097,0.257-0.009,0.457,0.152,0.581
		c-0.527,1.435-0.215,3.371-0.039,4.676c0.622,4.592,3.316,9.956,8.587,9.774c0.038-0.001,0.066-0.017,0.1-0.024
		c0.02-0.001,0.037,0.006,0.058,0.002c0.407-0.062,0.769-0.162,1.108-0.281c0.117,0.069,0.26,0.103,0.43,0.062
		c1.909-0.463,3.772-1.394,5.242-2.724c0.01,0.021,0.027,0.035,0.04,0.053c-0.102,0.125-0.151,0.292-0.08,0.499
		c1.423,4.135,6.627,4.064,9.559,1.58c0.284-0.24,0.228-0.559,0.032-0.769c0.201-0.075,0.361-0.25,0.361-0.53
		c0-0.694,0.037-1.362,0.198-2.039c0.002-0.008-0.001-0.015,0.001-0.024c0.047,0.088,0.113,0.171,0.226,0.232
		c25.254,13.57,49.13,29.482,73.802,44.048c0.003,0.131,0.053,0.266,0.185,0.383c4.541,4.021,7.902,9.381,11.87,13.941
		c2.927,3.364,6.861,7.782,11.689,7.908c0.306,0.008,0.484-0.178,0.545-0.404c0.089,0.064,0.194,0.112,0.334,0.111
		c0.381-0.002,0.629-0.131,0.888-0.362c0.159,0.113,0.367,0.142,0.583-0.012c6.701-4.78,9.802-9.625,7.368-17.771
		c-1.815-6.073-4.338-11.89-6.033-18.017c-2.09-7.553-3.159-15.328-3.238-23.161c-0.008-0.765-1.194-0.765-1.186,0
		c0.118,11.724,2.708,22.974,6.612,33.989c1.442,4.067,3.384,8.111,3.72,12.468c0.377,4.894-3.555,8.346-7.177,10.988
		c2.488-6.892-3.547-13.938-5.476-20.282c-3.06-10.063-4.036-20.937-5.447-31.316c-0.002-0.012-0.009-0.019-0.011-0.031
		c0.029-0.125,0.026-0.261-0.049-0.404c-0.235-0.451-0.532-0.862-0.782-1.303c0.022-0.003,0.043-0.005,0.065-0.011
		c0.164,0.123,0.327,0.245,0.491,0.368c0.527,0.395,1.033-0.312,0.78-0.806c0.455-0.152,0.912-0.299,1.369-0.443
		c0.163,0.123,0.324,0.248,0.487,0.37c0.52,0.39,1.016-0.291,0.787-0.784c1.043-0.349,2.067-0.743,3.045-1.267
		c0.088,0.047,0.182,0.081,0.275,0.081c0.352,0,0.555-0.272,0.593-0.593c0.017-0.14,0.318-0.364,0.412-0.459
		c0.317-0.319,0.154-0.733-0.14-0.917c0.302-0.213,0.421-0.749,0.02-1.04c-2.721-1.978-5.211-4.224-8.231-5.699
		c6.959-2.453,13.716-5.491,20.475-8.55c11.342-5.134,22.91-9.86,34.217-15.076c0.064,0.045,0.142,0.078,0.242,0.092
		c10.514,1.445,19.285,7.871,26.212,15.602c5.554,6.198,10.524,11.634,18.896,13.689c0.435,0.107,0.716-0.242,0.731-0.585
		c0.1,0.006,0.204-0.005,0.312-0.06c1.735-0.886,3.314-2.062,4.034-3.683c1.384-1.486,2.461-3.223,2.87-5.234
		c0.135-0.124,0.203-0.307,0.105-0.541c0-0.001-0.001-0.003-0.001-0.004c0.023-0.226-0.07-0.406-0.211-0.531
		c-5.455-13.302-6.469-27.534-6.503-41.78c-0.001-0.379-0.292-0.569-0.586-0.572c0.497-0.003,0.825-0.765,0.292-1.111
		c-1.468-0.954-3.05-1.683-4.732-2.121c3.037-2.554,5.994-5.223,8.994-7.785c5.226-4.464,10.749-8.576,15.956-13.051
		c4.052-3.482,7.26-7.913,10.442-12.168c0.184-0.245,0.376-0.483,0.563-0.726c0.219,0.042,0.461-0.019,0.624-0.245
		c0.664-0.92,1.272-1.867,1.856-2.827c3.073-3.631,6.355-7.083,9.193-10.912c6.583-8.88,8.655-20.373,9.623-31.124
		c1.149-12.759,0.261-26.167-3.235-38.741h41.727V0z M237.909,125.677c-0.106,0.545,0.388,0.878,0.871,0.67
		c5.017-2.154,9.342,6.719,4.522,8.582c-0.129,0.05-0.235,0.147-0.317,0.26c-0.561-1.349-1.611-2.405-3.175-2.896
		c-0.732-0.23-1.043,0.916-0.315,1.144c1.884,0.591,2.748,2.216,2.787,4.115c0.015,0.764,1.202,0.766,1.186,0
		c-0.003-0.166-0.026-0.326-0.04-0.488c0.115,0.303,0.23,0.606,0.346,0.909c0.116,1.81-0.696,2.644-2.437,2.502
		c-0.388-0.537-1.238-0.225-1.084,0.457c-0.823,1.064-1.647,2.128-2.47,3.192c-1.12-0.796-1.771-1.868-1.951-3.215
		c-0.133-0.534-0.805-0.54-1.084-0.142c-0.064,0.015-0.128,0.03-0.192,0.045c1.627-2.171,1.853-5.655-1.315-6.591
		c0.522-0.803,0.7-1.891,0.495-2.909c-0.39-1.939-2.353-3.509-4.221-3.88c-2.25-0.448-3.41,1.339-3.344,3.382
		c0.013,0.392,0.332,0.58,0.636,0.569c0.225,1.142,0.85,2.287,1.757,3.069c-2.295,0.796-4.833,0.268-6.653-1.422
		c-0.094-0.088-0.196-0.125-0.299-0.144c-0.248-0.597-0.6-1.148-1.019-1.577c-0.658-0.673-1.497-1.075-2.374-1.197
		c0.024-0.055,0.05-0.11,0.057-0.177c1.019-0.688,2.038-1.376,3.057-2.064c0.434,0.172,0.84-0.33,0.73-0.73
		c0.513-0.66,1.026-1.319,1.539-1.979c-0.129,0.991,0.11,2.096,0.599,3.022c0.357,0.677,1.381,0.077,1.024-0.599
		c-0.558-1.057-0.695-2.237-0.14-3.04h3.984c0.612,0.631,1.038,1.495,1.223,2.326c0.167,0.747,1.31,0.43,1.144-0.315
		c-0.164-0.733-0.459-1.417-0.856-2.01h5.779C236.877,124.923,237.393,125.3,237.909,125.677z M236.098,159.09
		c0.024,0.351,0.028,0.648,0.014,0.9c-0.227-0.397-0.48-0.775-0.765-1.124c0.031-0.785,0.06-1.569,0.092-2.354
		c0.246-0.033,0.482-0.075,0.699-0.136C236.157,157.283,236.127,158.195,236.098,159.09z M236.451,166.679
		c-0.046,1.385-0.508,2.925-1.37,4.113c-0.007-2.277,0.026-4.558,0.09-6.841c0.353-0.145,0.651-0.382,0.9-0.691
		C236.388,164.339,236.492,165.442,236.451,166.679z M234.466,160.03c-0.282-0.339-0.599-0.771-0.953-1.297
		c0.369,0.317,0.679,0.735,0.957,1.179C234.469,159.951,234.468,159.991,234.466,160.03z M235.503,154.925
		c0.034-0.831,0.066-1.662,0.098-2.493c0.257,0.87,0.372,1.773,0.436,2.345C235.873,154.836,235.689,154.882,235.503,154.925z
		 M234.582,155.073c-0.161,0.016-0.311,0.04-0.484,0.047c-1.014-0.439-1.569-1.699-1.891-2.658
		c-0.399-0.987-0.087-1.785,0.935-2.395c0.627-0.073,1.112,0.15,1.495,0.533C234.626,152.092,234.606,153.583,234.582,155.073z
		 M227.922,130.95c-0.056-0.326-0.302-0.441-0.553-0.417c0.105-3.549,4.378-1.438,5.163,0.877c0.478,1.41-0.351,3.128-1.961,2.783
		C229.068,133.869,228.165,132.355,227.922,130.95z M212.846,124.97c-0.561-0.113-0.868,0.516-0.65,0.895
		c-0.397,0.278-0.944,0.409-1.677,0.277c-1.074-0.193-1.866-0.751-2.387-1.596h4.809C212.922,124.693,212.89,124.835,212.846,124.97
		z M220.817,124.546c-0.105,0.646-0.121,1.311-0.068,1.909c-1.201-0.253-2.086,0.076-2.692,0.811
		c0.488-0.825,0.689-1.772,0.604-2.72H220.817z M252.288,94.261l-23.979-23.978c5.666,2.41,10.963,5.598,15.61,9.69
		c4.006,3.527,7.619,7.503,10.886,11.769L252.288,94.261z M255.528,91.021c-3.267-4.218-6.849-8.2-10.77-11.885
		c-5.277-4.961-11.864-8.343-18.557-10.959l-1.334-1.334l2.443-2.443c12.307,2.478,24.379,10.323,32.389,19.772
		c0.41,0.484,0.815,0.972,1.219,1.459L255.528,91.021z M228.311,63.399l5.696-5.696l14.631,14.63
		C242.497,68.21,235.146,64.895,228.311,63.399z M200.469,61.158c-0.094,0.291-0.004,0.666,0.361,0.808
		c0.201,0.078,0.406,0.143,0.608,0.218v1.255c-1.603-0.851-3.196-1.709-4.774-2.582C197.93,61.057,199.206,61.165,200.469,61.158z
		 M190.202,64.747c-4.76-1.684-9.589-2.627-14.534-3.558c-3.757-0.708-7.649-0.643-11.305-1.791
		c0.946-0.775,1.862-1.607,2.946-2.178c0.235-0.124,0.309-0.329,0.286-0.528c0.29-0.008,0.581-0.197,0.593-0.57
		c0.066-1.972,2.915-3.578,3.505-1.07c-0.271,0.143-0.438,0.456-0.216,0.783c0.617,0.911,1.353,1.647,2.263,2.263
		c0.181,0.122,0.354,0.119,0.501,0.053c0.032,0.008,0.057,0.025,0.092,0.028c2.728,0.276,5.422,0.61,8.044,1.443
		c0.517,0.164,0.815-0.358,0.693-0.761c0.856-0.404,1.451-1.151,2.01-1.917c0.343-0.47,0.679-0.997,1.173-1.323
		c0.643-0.424,1.359,0.505,1.719,0.919c0.072,0.083,0.152,0.13,0.233,0.159c-0.111,0.164-0.152,0.375-0.033,0.599
		c0.376,0.705,0.972,1.301,1.677,1.677c0.21,0.112,0.408,0.081,0.568-0.014c0.008,0.004,0.01,0.01,0.018,0.014
		c0.632,0.297,1.289,0.555,1.955,0.794c0.032,0.029,0.054,0.061,0.095,0.085c2.95,1.726,5.95,3.358,8.951,4.974v5.032
		C197.856,67.849,194.106,66.128,190.202,64.747z M166.131,66.967c1.06-0.065,1.809,1.172,2.929,1.172
		c0.549,0,4.227-1.621,3.698-1.509c3.13-0.664,6.254-0.67,9.403-0.164c2.137,0.343,4.224,1.097,6.287,1.729
		c2.546,0.779,3.353,0.962,2.24,2.683c-0.314,0.37-0.581,0.748-0.759,1.056c-0.395,0.684,0.572,1.185,1.024,0.599
		c0.385-0.5,0.735-1.015,1.076-1.536c0.456-0.08,1.005,0.285,1.648,1.101c0.113,0.298,0.397,0.512,0.73,0.414
		c2.303-0.677,4.701-0.227,7.03,0.715v7.357c-1.371-0.293-2.754-0.537-4.132-0.795c1.182-0.473,2.364-0.946,3.547-1.419
		c0.701-0.28,0.396-1.428-0.315-1.144c-1.465,0.586-2.929,1.172-4.394,1.758c-0.24,0.096-0.355,0.295-0.383,0.503
		c-1.652-0.342-3.285-0.756-4.867-1.382c-0.166-0.066-0.307-0.048-0.421,0.012c-3.526-2.325-7.355-4.1-11.502-4.748
		c0.003-0.007,0.005-0.015,0.008-0.022c0.016-0.008,0.031-0.007,0.047-0.016c1.357-0.798,2.822-1.417,4.101-2.343
		c0.613-0.444,0.022-1.474-0.599-1.024c-0.75,0.543-1.563,0.98-2.381,1.409c0.235-0.526,0.433-1.068,0.617-1.618
		c0.243-0.728-0.903-1.037-1.144-0.315c-0.292,0.875-0.608,1.715-1.112,2.495c-0.07,0.109-0.088,0.213-0.086,0.313
		c-0.292,0.005-0.581,0.195-0.581,0.572c0,0.098,0,0.195,0,0.293c0,0.04,0.015,0.07,0.022,0.106
		c-0.964-0.101-1.945-0.145-2.943-0.113c-0.154,0.005-0.269,0.065-0.361,0.146c-2.757-1.77-6.105-2.412-9.09-3.704
		C162.2,68.13,163.345,67.139,166.131,66.967z M182.228,81.155c-0.104-0.273-0.41-0.545-0.73-0.414
		c-2.373,0.969-4.479,0.484-6.887,0.145c-0.362-0.051-0.527-0.003-0.605,0.058c-0.003-0.05-0.01-0.111-0.03-0.196
		c-0.197-0.82-0.881-1.515-1.465-2.085c-2.5-2.442,1.043-4.151,3.287-4.08c0.25,0.008,0.409-0.118,0.496-0.286
		c0.655,0.023,1.3,0.081,1.939,0.163c0.303,1.281,0.761,2.515,1.094,3.788c0.193,0.74,1.338,0.425,1.144-0.315
		c-0.288-1.102-0.671-2.175-0.966-3.274c6.192,1.176,11.624,4.963,16.378,9.124c0.573,0.502,1.416-0.334,0.839-0.839
		c-1.112-0.973-2.261-1.924-3.445-2.83c2.681,0.714,5.448,1.085,8.162,1.684v10.491c-0.543,0.046-1.042-0.329-1.495-1.143
		c-0.426-0.407-1.151-0.005-0.991,0.577c1.229,4.495-5.697-1.144-6.779-2.035C189.168,87.214,183.641,84.881,182.228,81.155z
		 M200.33,92.944c0.349,0.227,0.718,0.44,1.109,0.656v3.485c-1.067-0.775-2.108-1.561-3.176-2.273
		C199.511,94.992,200.338,94.408,200.33,92.944z M195.116,96.313c-0.394-1.018-0.886-1.836-1.526-2.536
		c2.788,0.883,5.305,2.87,7.848,4.707v3.357C198.64,101.208,196.477,99.831,195.116,96.313z M206.799,124.546
		c0.658,1.491,1.969,2.482,3.678,2.789c1.134,0.204,2.167-0.179,2.86-0.922c0.565,0.294,1.018,0.751,1.177,1.417
		c0.178,0.747-0.381,1.059-0.994,1.17c-0.075-0.054-0.144-0.114-0.223-0.163c-0.339-0.207-0.658-0.03-0.8,0.242
		c-0.542,0.165-0.473,1.115,0.208,1.157c0.142,0.009,0.284,0.004,0.425-0.001c1.255,1.372,1.614,4.745-0.894,4.276
		c-2.388-0.446-3.965-5.042-0.838-5.469c0.755-0.103,0.432-1.246-0.315-1.144c-1.878,0.256-2.809,1.951-2.563,3.745
		c0.272,1.98,1.646,3.684,3.654,4.059c1.651,0.309,2.901-0.893,3.102-2.472c0.148-1.165-0.146-2.362-0.818-3.297
		c0.713-0.33,1.235-0.934,1.263-1.889c0.034-1.16-0.771-2.101-1.755-2.646c0.104-0.267,0.185-0.549,0.219-0.853h3.301
		c0.116,1.072-0.24,2.16-1.099,2.92c-0.574,0.508,0.268,1.344,0.839,0.839c0.183-0.162,0.336-0.343,0.484-0.525
		c-0.316,0.58-0.519,1.314-0.618,2.156c-0.008,0.07,0.004,0.127,0.016,0.184c-0.509,0.067-1.012,0.217-1.48,0.475
		c-0.67,0.37-0.072,1.394,0.599,1.024c2.339-1.29,5.056,1.086,4.412,3.582c-0.327,1.268-1.716,2.224-2.828,1.271
		c-0.975-0.836-1.136-2.307-0.726-3.451c0.259-0.722-0.888-1.03-1.144-0.315c-0.588,1.641-0.156,3.587,1.185,4.737
		c1.539,1.319,3.279,0.367,4.293-1.057c0.387-0.544,0.542-1.17,0.545-1.806c2.313,1.612,5.269,1.868,7.867,0.622
		c0.31,0.113,0.63,0.2,0.972,0.225c0.53,0.037,0.992-0.063,1.387-0.257c0.046,0.017,0.086,0.039,0.14,0.046
		c3.708,0.446,2.251,5.245-0.147,6.058c-0.286-0.314-0.773-0.222-0.958,0.097c-0.464-0.063-0.94-0.283-1.405-0.724
		c-0.555-0.526-1.395,0.312-0.839,0.839c0.775,0.735,1.569,1.067,2.328,1.106c0.222,2.246-1.496,2.997-3.585,1.94
		c-2.265-1.145-2.519-3.674-1.619-5.803c0.294-0.696-0.727-1.301-1.024-0.599c-3.093,7.319,7.169,10.466,7.437,5.097
		c0.725,0.342,1.445,0.084,2.148-0.556c0,2.212-0.007,4.427-0.019,6.645c-1.05-0.444-2.624-0.801-3.305,0.42
		c-1.227,2.199,0.425,6.57,3.217,6.821c-0.01,0.487-0.017,0.974-0.029,1.461c-0.381-0.337-0.793-0.64-1.253-0.887
		c-2.896-1.559-3.445,5.224-0.66,6.535c0.652,0.307,1.215,0.446,1.702,0.448c-0.135,2.616-0.344,5.219-0.361,7.811
		c-0.298,0.22-0.613,0.417-0.965,0.556c-3.403,1.349-3.869-5.093-3.925-6.799c-0.113-3.454,2.766-14.762-3.162-15.517
		c-0.072-0.009-0.136-0.003-0.204-0.007c-0.263-3.646-1.647-7.532-5.139-5.923c-2.289,1.055-2.223,5.828,0.794,5.312
		c0.753-0.129,0.433-1.272-0.315-1.144c-0.873-0.383-1.163-1.047-0.87-1.991c2.421-1.15,3.865-0.482,4.331,2.003
		c0.21,0.585,0.322,1.212,0.367,1.852c-1.836,0.643-2.028,3.785-0.575,4.986c0.367,0.303,0.817,0.169,0.991-0.262
		c0.297-0.733,0.479-2.128,0.463-3.689c1.985-0.661,2.59,5.012,2.616,5.278c0.246,2.493-0.246,5.124-0.432,7.609
		c-0.182,2.439-0.142,6.128,1.647,8.117c1.366,1.518,2.985,1.643,4.389,0.973c0.055,2.247,0.294,4.485,0.925,6.715
		c0.67,2.369,2.705,5.984,5.534,4.424c1.594-0.879,2.251-2.919,2.389-4.975c1.396-0.651,2.351-2.777,2.68-3.948
		c0.973-3.456-0.573-8.167-2.789-10.829c-0.166-0.2-0.507-0.222-0.719-0.093c-2.102,1.284-2.588,2.73-1.737,5.063
		c0.26,0.713,1.407,0.405,1.144-0.315c1.015-3.028,1.783-3.171,2.303-0.427c0.517,1.409,0.686,2.969,0.78,4.449
		c0.062,1.244-0.192,2.44-0.762,3.586c-0.303,0.646-0.596,1.046-0.876,1.271c-0.031-1.077-0.185-2.092-0.404-2.869
		c-1.945-6.921-5.854,1.972-1.368,4.095c0.187,0.088,0.367,0.139,0.544,0.173c-0.493,2.241-2.134,5.652-4.671,2.175
		c-1.78-2.44-1.828-6.297-1.857-9.239c0.856-0.737,1.55-1.767,1.921-2.912c0.755-2.326,0.771-5.392-0.149-7.998
		c0.512-1.768,0.503-4.111,0.43-5.77c2.838-1.931,1.889-7.278,0.886-10.261c-0.242-0.721-1.388-0.412-1.144,0.315
		c0.621,1.846,0.947,3.687,0.991,5.642c0.092,1.131-0.192,1.993-0.849,2.588c-0.15-1.366-0.547-3.087-1.485-4.098
		c0.073-2.146,0.123-4.291,0.145-6.435c2.113,2.701,5.88,2.402,5.745-1.552c0.906,0.253,1.824-0.358,2.615-1.422
		c0.659-0.886,1.022-2.647,0.662-3.679c-0.632-1.809-0.255-0.706,0.719-2.181c2.963-4.486-1.374-10.929-6.403-9.774
		c0.009-0.155,0.003-0.303,0.001-0.454h6.326c7.681,17.522,12.919,39.267,9.673,58.409c-0.814,4.799-2.472,9.438-3.504,14.193
		c-0.977,4.501-2.324,8.842-3.98,13.138c-3.357,8.711-8.447,16.638-11.755,25.345c-4.691,3.975-9.418,7.903-14.36,11.565
		c-0.08-0.076-0.167-0.144-0.246-0.222c-0.547-0.534-1.387,0.304-0.839,0.839c0.034,0.033,0.071,0.062,0.105,0.094
		c-0.713,0.52-1.419,1.048-2.143,1.555c-0.354-0.114-0.728,0.183-0.765,0.535c-5.526,3.851-11.034,7.546-16.727,10.929
		c-0.375-0.197-0.809,0.114-0.848,0.495c-0.414,0.243-0.827,0.487-1.243,0.726c1.871-2.093,3.049-4.747,4.252-7.284
		c2.237-4.722,5.077-9.128,7.486-13.763c4.604-8.856,7.458-19.164,8.309-29.09c0.468-5.451,0.087-10.941,0.535-16.398
		c0.463-5.63,0.406-11.113-0.827-16.641c-2.511-11.261-3.835-22.825-7.524-33.795c-2.382-7.081-5.451-13.997-9.085-20.632H206.799z
		 M224.826,151.971c-0.062,0.529-0.164,1.048-0.302,1.551C224.295,152.966,224.397,152.449,224.826,151.971z M241.294,175.647
		c0.281,0.83,0.433,1.687,0.466,2.568C240.302,177.036,239.716,171.508,241.294,175.647z M129.634,65.424
		c0.024,0.027,0.047,0.054,0.07,0.082c0.002,0.003,0,0,0.002,0.004c0.042,0.057,0.079,0.118,0.114,0.179
		c0.015,0.025,0.027,0.052,0.04,0.078c0.017,0.046,0.028,0.094,0.038,0.141c0.003,0.031,0.008,0.074,0.007,0.1
		c-0.004,0.013-0.006,0.02-0.013,0.044c-0.003,0.01,0,0.006-0.002,0.012c-0.006,0.008-0.009,0.009-0.022,0.033
		c-0.002,0.003-0.004,0.007-0.006,0.01c-0.02,0.022-0.04,0.045-0.062,0.066c-0.018,0.018-0.02,0.021-0.023,0.026
		c-0.01,0.005-0.023,0.012-0.058,0.034c-0.07,0.045-0.144,0.081-0.22,0.115c0.139-0.063-0.126,0.039-0.172,0.053
		c-0.124,0.037-0.251,0.064-0.379,0.087c-0.467,0.087-1.198,0.074-1.771,0.035c-0.834-0.057-1.659-0.203-2.477-0.37
		c0.018-0.023,0.04-0.036,0.055-0.064c0.129-0.231,0.28-0.466,0.421-0.635c0.137-0.165,0.426-0.438,0.505-0.497
		c0.404-0.302,0.651-0.403,1.138-0.5c0.012-0.002,0.071-0.012,0.091-0.016c0.035-0.004,0.071-0.008,0.106-0.011
		c0.101-0.009,0.202-0.011,0.303-0.011c0.297,0,0.331,0.012,0.536,0.052c0.192,0.037,0.38,0.092,0.564,0.157
		c0.045,0.016,0.09,0.033,0.135,0.051c0.008,0.003,0.004,0.002,0.01,0.004c0.007,0.003,0.005,0.003,0.023,0.011
		c0.099,0.044,0.196,0.094,0.291,0.146c0.146,0.08,0.284,0.173,0.418,0.271c0.023,0.021,0.116,0.097,0.138,0.116
		C129.506,65.288,129.571,65.355,129.634,65.424z M99.482,297.181c-12.907-0.006-31.441-1.543-39.935-13.037
		c0.25-0.172,0.479-0.361,0.701-0.555c-0.139,0.206-0.158,0.477,0.087,0.692c5.773,5.052,14.278,7.086,21.48,9.116
		c9.186,2.59,18.758,3.241,27.972,0.522c7.696-2.271,15.643-6.448,21.669-11.748c6.756-5.943,10.46-15.717,13.464-23.956
		c3.246-8.901,4.98-18.302,5.484-27.746c0.279-5.233-0.068-10.426-0.744-15.614c-0.614-4.716-0.541-9.463-1.239-14.164
		c-2.981-20.098-10.648-38.621-21.763-55.563c-0.003-0.005-0.002-0.01-0.005-0.015c-0.084-0.146-0.176-0.288-0.277-0.423
		c-0.056-0.083-0.123-0.143-0.195-0.186c-9.911-12.778-19.81-26.148-32.295-36.368c2.841,2.111,5.578,4.351,8.199,6.667
		c16.237,14.348,29.961,32.469,38.82,52.243c9.806,21.888,13.18,46.412,10.373,70.172c-1.503,12.72-4.861,25.484-11.189,36.679
		c-3.136,5.547-7.756,9.925-12.566,14.009c-5.074,4.308-10.117,7.461-16.478,8.607C107.242,296.951,103.39,297.183,99.482,297.181z
		 M35.625,248.366c0.13,0.296,0.276,0.587,0.453,0.865c0.107,0.168,0.256,0.248,0.411,0.268c0.026,0.142,0.098,0.279,0.241,0.384
		c3.837,2.811,11.255,3.911,15.004,0.335c1.468,4.025,1.032,8.452-0.937,12.254c-0.07,0.136-0.075,0.266-0.051,0.386
		c-0.102,0.02-0.203,0.061-0.296,0.153c-0.023,0.023-0.046,0.046-0.07,0.07c-0.153,0-0.299,0.053-0.403,0.155
		c-0.124-0.162-0.326-0.253-0.584-0.157c-5.043,1.858-11.231,0.995-15.24-2.703c-0.091-0.084-0.188-0.122-0.286-0.142
		c-0.181-0.785-0.291-1.574-0.345-2.363c0.177-0.164,0.252-0.411,0.066-0.67c-0.034-0.047-0.066-0.094-0.1-0.141
		C33.439,254.057,34.247,251.082,35.625,248.366z M27.621,231.342c-2.944-6.469-5.375-12.779-7.258-19.63
		c-1.747-6.355-3.666-12.656-5.19-19.07c-1.775-7.47-2.066-14.85-2.62-22.454c-1.009-13.854,1.883-29.625,9.287-41.983
		c0.197,0.259,0.583,0.389,0.89,0.099c0.629-0.594,1.169-0.594,1.797,0c0.556,0.525,1.396-0.313,0.839-0.839
		c-0.5-0.473-1.039-0.794-1.738-0.833c-0.348-0.019-0.678,0.092-0.981,0.262c1.012-1.586,2.105-3.106,3.274-4.556
		c1.075,0.089,2.25,0.856,2.999,1.572c0.553,0.528,1.393-0.31,0.839-0.839c-0.789-0.753-1.872-1.462-2.989-1.77
		c0.644-0.754,1.316-1.479,2.005-2.187c0.02,0.281,0.205,0.557,0.564,0.576c0.881,0.048,1.641,1.009,2.217,1.584
		c0.542,0.541,1.381-0.298,0.839-0.839c-0.839-0.838-1.765-1.84-3.02-1.926c1.983-1.959,4.145-3.728,6.497-5.262
		c0.025,0.04,0.041,0.081,0.078,0.118c1.465,1.465,2.929,2.929,4.394,4.394c0.541,0.541,1.38-0.298,0.839-0.839
		c-1.434-1.434-2.868-2.868-4.301-4.302c3.702-2.257,7.838-3.961,12.449-4.935c0.18-0.038,0.364-0.057,0.545-0.092
		c-0.034,0.212,0.031,0.441,0.255,0.594c2.216,1.502,4.143,3.293,6.031,5.18c0.542,0.541,1.38-0.298,0.839-0.839
		c-1.866-1.865-3.788-3.623-5.952-5.132c4.646-0.712,9.493-0.415,14.309,0.565c-0.289,0-0.579,0-0.868,0
		c-0.765,0-0.765,1.186,0,1.186c0.586,0,1.172,0,1.757,0c0.514,0,0.674-0.531,0.498-0.882c8.112,1.866,16.056,5.533,22.666,9.339
		c11.368,6.546,20.083,17.215,26.992,28.145c7.159,11.326,12.635,23.653,16.715,36.397c0.957,2.988,2.558,5.729,3.751,8.622
		c1.143,2.773,1.411,5.923,1.815,8.865c1.065,7.744,1.971,15.405,2.119,23.229c0.387,20.406-4.636,44.857-21.676,58.018
		c-7.056,5.45-15.962,7.848-24.727,8.447c-8.739,0.597-22.192-1.943-28.053-9.263c1.202-0.547,2.301-1.331,3.314-2.3
		c0.009,0.006,0.012,0.014,0.021,0.02c10.32,6.228,21.943,6.523,33.27,3.654c9.523-2.413,15.991-7.519,21.454-15.683
		c13.061-19.52,12.495-45.739,8.679-67.939c-1.055-6.135-3.23-11.523-5.614-17.213c-2.217-5.292-4.019-10.746-6.252-16.033
		c-4.739-11.224-13.399-20.458-22.009-28.889c-12.621-12.358-33.592-23.796-52.049-19.591c0.371-0.2,0.532-0.772,0.052-1.018
		c-2.197-1.125-4.264-2.576-6.031-4.301c-0.548-0.534-1.387,0.304-0.839,0.839c1.835,1.791,3.989,3.318,6.271,4.486
		c0.082,0.042,0.162,0.062,0.24,0.068c-2.325,0.552-4.61,1.341-6.831,2.424c-18.911,9.221-25.928,31.837-25.729,51.335
		c0.26,25.568,10.381,49.964,21.124,72.719c0.048,0.101,0.112,0.167,0.183,0.217c-0.229,0.577-0.38,1.177-0.463,1.787
		C32.586,240.195,29.787,236.103,27.621,231.342z M62.152,271.357c-0.808-2.04-2.129-3.74-3.69-4.763
		c2.85-2.313,6.119-2.75,8.708,0.191c2.24,2.544,2.662,6.517,1.801,9.67c-0.036,0.131-0.019,0.242,0.017,0.343
		c-0.028,0.02-0.058,0.028-0.084,0.054c-1.75,1.699-3.752,2.781-6.201,2.888C63.495,277.176,63.259,274.15,62.152,271.357z
		 M51.234,267.299c-0.03-1.072-0.095-2.145-0.18-3.219c0.005-0.004,0.01-0.005,0.015-0.01c0.073-0.073,0.146-0.146,0.22-0.22
		c0.153-0.153,0.188-0.328,0.158-0.491c0.146-0.025,0.283-0.112,0.374-0.288c1.791-3.458,2.387-7.317,1.638-11.038
		c4.433-2.1,8.297-5.173,12.648-7.422c0.098-0.051,0.163-0.118,0.212-0.191c0.207-0.028,0.405-0.143,0.5-0.384
		c1.159-2.922-0.249-5.171-3.297-5.725c-4.274-0.776-7.921,3.342-11.074,5.741c-0.44-2.358-1.778-4.334-4.496-5.36
		c-3.353-1.265-8.251-0.383-10.833,2.224c-0.213-0.033-0.444,0.027-0.602,0.245c-0.103,0.142-0.185,0.297-0.277,0.446
		c-11.562-24.542-21.705-50.477-20.672-78.07c0.442-11.811,4.444-23.394,11.71-32.74c7.858-10.107,18.536-14.773,31.224-13.921
		c13.699,0.92,26.169,7.782,36.457,16.514c9.696,8.23,19.328,18.884,24.666,30.477c2.553,5.544,4.415,11.394,6.703,17.048
		c2.531,6.254,4.729,12.065,5.878,18.749c2.448,14.241,2.824,28.964,0.04,43.177c-2.415,12.328-8.254,25.117-18.501,32.838
		c-5.228,3.939-12.363,5.182-18.671,6.287c-7.665,1.342-17.09-0.862-23.928-4.714c2.797-1.201,5.605-2.666,7.88-4.715
		c0.244,0.102,0.535,0.063,0.695-0.241c3.086-5.862-1.578-14.741-8.641-13.854c-0.014,0.002-0.024,0.01-0.037,0.012
		c-0.084,0.003-0.172,0.022-0.262,0.069c-2.508,1.29-4.733,2.993-7.03,4.613c-0.14,0.099-0.211,0.229-0.241,0.364
		c-2.092-0.094-4.268,0.889-6.03,2.365c-0.051,0.043-0.078,0.09-0.109,0.137C55.437,265.195,53.254,265.443,51.234,267.299z
		 M37.16,248.782c-0.016-0.05-0.025-0.099-0.057-0.149c-0.952-1.494-1.059-3.244-0.56-4.851c1.068,5.467,10.247,4.341,13.967,2.367
		c0.676-0.359,0.077-1.383-0.599-1.024c-3.114,1.653-12.208,3.069-12.289-2.344c-0.003-0.208-0.097-0.354-0.226-0.449
		c0.051-0.037,0.102-0.073,0.145-0.13c2.096-2.798,6.346-3.084,9.526-2.505c4.33,0.789,4.802,5.336,4.109,8.858
		c-0.036,0.182,0.007,0.336,0.091,0.458c-3.259,3.62-10.392,2.444-13.938-0.153C37.272,248.817,37.216,248.8,37.16,248.782z
		 M52.602,245.404c2.206-1.564,4.186-3.423,6.476-4.87c2.73-1.724,8.238-1.426,6.661,2.987c-0.075,0.007-0.152,0.025-0.23,0.066
		c-4.246,2.195-8.032,5.168-12.331,7.262c-0.19-0.673-0.414-1.341-0.698-1.997c-0.033-0.077-0.078-0.132-0.126-0.179
		C52.561,247.561,52.653,246.459,52.602,245.404z M71.25,259.623c5.837-0.586,9.856,6.497,7.66,11.583
		c-0.116,0.012-0.233,0.051-0.34,0.153c-2.311,2.21-5.308,3.719-8.228,4.96c-0.067,0.028-0.111,0.068-0.155,0.107
		c0.922-3.787,0.098-7.896-2.504-10.851c-0.832-0.946-1.77-1.525-2.752-1.827C66.984,262.285,69.008,260.795,71.25,259.623z
		 M33.428,272.061c-0.706-3.472-0.038-6.81,0.616-10.226c4.301,3.451,10.519,4.284,15.665,2.388c0.066-0.024,0.114-0.063,0.163-0.1
		c0.206,2.57,0.364,5.158-0.014,7.719c-0.025,0.169,0.02,0.313,0.097,0.431c-0.044,0.061-0.078,0.136-0.097,0.228
		C48.607,278.746,35.458,276.998,33.428,272.061z M61.375,272.65c1.736,4.902,0.215,10.253-5.088,11.651
		c2.004-5.374,0.494-12.737-4.653-15.738C55.686,264.314,59.81,268.232,61.375,272.65z M15.327,224.787
		c-4.547-11.62-8.877-23.688-11.481-35.904c-1.399-6.563-2.532-13.358-2.628-20.072c-0.1-6.98-0.411-14.294,0.925-21.154
		c2.315-11.884,6.719-24.825,13.479-34.902c13.772-20.531,39.539-23.788,61.013-14.249c21.212,9.424,35.211,29.448,48.972,47.178
		c9.972,15.192,16.914,31.401,20.491,49.21c1.809,9.008,2.655,18.527,3.13,27.716c0.484,9.361-0.77,18.746-3.116,27.796
		c-2.193,8.457-5.652,16.723-10.138,24.217c-4.949,8.266-13.743,13.101-22.405,16.69c-9.202,3.813-18.7,3.806-28.33,1.719
		c-7.848-1.701-17.912-4.207-24.063-9.59c-0.214-0.188-0.466-0.188-0.667-0.089c0.747-0.711,1.332-1.541,1.759-2.458
		c0.071,0.03,0.153,0.047,0.247,0.045c0.975-0.021,1.889-0.188,2.755-0.465c0.015,0.099,0.048,0.198,0.12,0.292
		c5.794,7.423,18.864,10.017,27.681,9.808c9.973-0.236,19.743-3.33,27.66-9.445c18.853-14.562,22.237-43.024,21.005-65.039
		c-0.343-6.136-1.277-12.189-2.113-18.269c-0.942-6.849-4.177-12.457-6.322-18.948c-3.91-11.83-9.327-23.134-15.873-33.724
		c-12.523-20.258-31.911-35.411-55.945-38.912c-15.185-2.212-27.232,4.457-35.767,14.921c-0.313,0.042-0.469,0.302-0.459,0.574
		c-7.971,10.049-12.782,23.424-14.081,35.825c-0.812,7.756,0.077,16.186,0.839,23.931c0.81,8.24,3.15,16.29,5.412,24.223
		c2.018,7.075,3.746,14.121,6.733,20.865c1.605,3.624,3.249,7.24,4.992,10.801c1.578,3.223,3.882,5.883,5.609,8.998
		c0.097,0.174,0.238,0.259,0.387,0.283c0.003,0.024,0.008,0.048,0.011,0.072c-1.546,2.689-2.566,5.675-2.805,8.721
		C25.474,245.724,19.723,236.019,15.327,224.787z M32.207,271.889c0.013,0.075,0.021,0.15,0.035,0.226
		c-0.008,0.08,0.002,0.166,0.041,0.262c0.022,0.106,0.067,0.186,0.122,0.251c2.754,5.749,17.096,7.677,18.597,0.188
		c0.035-0.173-0.005-0.32-0.081-0.439c0.038-0.06,0.068-0.131,0.081-0.22c0.121-0.817,0.183-1.634,0.219-2.45
		c4.617,2.885,5.894,9.938,3.759,14.712c-0.184-0.06-0.393-0.045-0.575,0.122c-5.343,4.886-10.643,8.722-18.227,7.738
		c1.256-6.308-1.343-15.54-8.728-15.822C28.802,274.721,30.234,272.92,32.207,271.889z M26.364,277.541
		c0.089,0.064,0.197,0.11,0.34,0.104c7.349-0.307,9.599,9.089,8.215,14.847c-0.027,0.111-0.017,0.209,0.008,0.299
		c-0.838,0.834-1.827,1.502-2.902,2.006c2.32-4.213-2.416-12.998-6.371-14.5c-1.255-0.477-2.7-0.287-3.889,0.323
		C22.841,279.046,24.425,278.072,26.364,277.541z M21.287,288.269c-0.427-1.679-0.632-3.535-0.238-5.236
		c0.715-3.088,4.739-1.644,6.168-0.482c2.837,2.305,7.154,12.196,1.194,13.239C24.112,295.906,22.207,291.883,21.287,288.269z
		 M36.503,294.249c-0.023-0.066-0.06-0.114-0.095-0.163c0.067-0.089,0.117-0.196,0.117-0.339c0-0.084,0-0.167,0-0.251
		c2.871,0.321,5.441-0.021,7.816-0.846c-0.157,0.725-0.215,1.452-0.215,2.195c0,0.154,0.056,0.268,0.133,0.36
		c-0.061,0.024-0.122,0.05-0.179,0.099C41.862,297.185,37.618,297.49,36.503,294.249z M45.462,292.413
		c-0.027-0.055-0.061-0.102-0.103-0.145c0.075-0.031,0.149-0.066,0.223-0.098C45.527,292.244,45.483,292.325,45.462,292.413z
		 M138.002,332.37c0.595,3.594,1.635,7.144,3.172,10.451c2.103,4.526,5.313,9.137,3.295,14.259
		c-0.079,0.201-0.038,0.364,0.058,0.486c-0.068,0.028-0.135,0.068-0.198,0.131c-0.04,0.041-0.081,0.08-0.122,0.119
		c-0.014,0-0.02,0-0.044,0c-0.303,0.002-0.481,0.19-0.544,0.416c-0.089-0.068-0.195-0.119-0.335-0.123
		c-5.408-0.142-9.839-6.294-12.977-10.06c-3.137-3.765-5.928-8.003-9.589-11.295c0.018-0.197-0.053-0.401-0.275-0.532
		c-24.781-14.614-48.749-30.604-74.107-44.23c-0.073-0.039-0.144-0.056-0.214-0.065c3.266-1.507,6.2-3.875,9.122-6.546
		c0.032-0.03,0.045-0.063,0.068-0.094c0.127,0.059,0.264,0.074,0.39,0.031c0.128,0.168,0.334,0.276,0.598,0.216
		c0.821-0.187,1.56-0.456,2.226-0.789c5.305,7.167,14.87,10.222,23.184,12.221c4.269,1.027,8.78,1.547,13.356,1.697
		c-0.382,0.151-0.576,0.777-0.119,1.09c2.878,1.971,5.331,4.48,7.789,6.937c0.542,0.541,1.38-0.298,0.839-0.839
		c-2.531-2.531-5.065-5.093-8.029-7.123c-0.043-0.029-0.084-0.037-0.127-0.053c4.775,0.136,9.614-0.132,14.323-0.655
		c-0.212,0.259-0.239,0.66,0.144,0.854c3.903,1.975,7.697,4.33,10.425,7.816c0.471,0.602,1.304-0.244,0.839-0.839
		c-2.753-3.518-6.597-5.93-10.533-7.933c2.616-0.309,5.19-0.69,7.681-1.127c0.322-0.056,0.64-0.123,0.96-0.183
		c-0.005,0.14,0.043,0.287,0.175,0.415c3.581,3.491,7.842,6.175,11.424,9.666c0.548,0.534,1.387-0.304,0.839-0.839
		c-3.514-3.426-7.68-6.078-11.218-9.475c0.339-0.069,0.676-0.145,1.013-0.218c0,0.238,0.118,0.478,0.401,0.579
		c3.789,1.348,6.828,3.855,9.844,6.438c0.13,0.112,0.274,0.148,0.412,0.144c0,0.008,0,0.015,0,0.023
		c0,0.388,0.304,0.577,0.605,0.572c-0.006,0.1,0.005,0.204,0.062,0.313c0.25,0.48,0.575,0.913,0.833,1.388
		c-0.016,0.071-0.025,0.146-0.014,0.228C134.843,314.757,136.536,323.513,138.002,332.37z M123.945,296.237
		c0.1,0.075,0.2,0.15,0.3,0.225c-0.452-0.218-0.914-0.42-1.386-0.608c0.283-0.066,0.564-0.138,0.846-0.206
		C123.678,295.857,123.737,296.081,123.945,296.237z M133.367,303.304c0.002,0.012,0.002,0.024,0.004,0.036
		c-0.013,0-0.026-0.001-0.039,0c0-0.021,0-0.041,0-0.062C133.344,303.286,133.356,303.295,133.367,303.304z M134.205,302.459
		c-3.145-2.359-6.29-4.718-9.435-7.076c0.716-0.184,1.43-0.376,2.14-0.576c2.696,2.606,5.601,4.948,8.578,7.216
		C135.059,302.16,134.631,302.306,134.205,302.459z M132.435,293.221c3.435,1.376,6.131,3.944,9.085,6.091
		c0.004,0.003,0.008,0.003,0.012,0.005c-0.045,0.026-0.09,0.046-0.132,0.088c-0.185,0.186-0.35,0.366-0.482,0.563
		c-0.089,0.003-0.182,0.022-0.277,0.076c-1.197,0.681-2.48,1.127-3.778,1.541c-2.988-2.259-5.904-4.587-8.625-7.162
		c0.466-0.138,0.931-0.277,1.394-0.421c2.58,2.459,5.418,4.64,8.373,6.627c0.637,0.428,1.23-0.6,0.599-1.024
		c-2.701-1.816-5.29-3.802-7.675-6.017c0.46-0.149,0.921-0.296,1.38-0.451C132.349,293.167,132.384,293.201,132.435,293.221z
		 M146.072,286.496c-5.332,2.411-10.737,4.463-16.231,6.111c-0.327-0.221-0.716-0.041-0.862,0.26
		c-0.639,0.186-1.281,0.361-1.922,0.536c-0.214-0.066-0.436,0.011-0.586,0.164c-2.703,0.722-5.43,1.339-8.18,1.852
		c6.26-2.837,11.555-7.555,16.579-12.672c8.15-8.3,12.28-19.997,14.992-31.071c5.537-22.604,4.529-46.55-1.917-68.839
		c-6.197-21.426-18.19-40.294-32.961-56.816c-10.507-11.751-23.17-22.864-37.799-29.292c4.695-1.871,9.699-3.749,13.209-7.529
		c0.52-0.56-0.317-1.401-0.839-0.839c-3.423,3.685-8.355,5.493-12.919,7.317c-0.296,0.118-0.404,0.389-0.387,0.644
		c-4.118-1.742-8.388-3.113-12.81-4.018c-6.329-1.296-12.82-1.236-19.143-0.073c3.964-1.88,8.023-3.562,12-5.427
		c0.169-0.079,0.259-0.201,0.291-0.333c0.163,0.104,0.368,0.146,0.588,0.04c1.467-0.704,1.774-1.743,1.822-3.179
		c0.044,0.094,0.107,0.182,0.216,0.25c2.062,1.293,4.098,1.1,5.991-0.386c0.602-0.472-0.244-1.305-0.839-0.839
		c-1.483,1.163-2.977,1.189-4.554,0.2c-0.334-0.209-0.65-0.039-0.794,0.23c0.116-3.412,5.413-3.336,6.367-0.439
		c0.058,0.177,0.172,0.29,0.305,0.353c-0.038,0.265,0.071,0.551,0.402,0.648c1.339,0.391,2.704,0.393,4.064,0.16
		c2.041,0.613,4.107,1.101,6.186,1.526c-0.019,0.026-0.041,0.054-0.06,0.08c-0.449,0.622,0.581,1.213,1.024,0.599
		c0.102-0.142,0.214-0.282,0.33-0.419c0.948,0.183,1.898,0.357,2.85,0.528c0.003,0.074,0.005,0.149,0.002,0.223
		c-0.002,0.04-0.005,0.081-0.009,0.121c0,0.004,0,0.001,0,0.004c-0.012,0.077-0.03,0.152-0.051,0.227
		c-0.007,0.027-0.039,0.11-0.052,0.148c-0.032,0.067-0.067,0.133-0.108,0.195c-0.014,0.021-0.015,0.025-0.018,0.032
		c-0.007,0.006-0.022,0.019-0.053,0.053c-0.026,0.028-0.054,0.053-0.082,0.078c-0.004,0.003-0.001,0.001-0.004,0.004
		c-0.063,0.045-0.131,0.082-0.2,0.116c-0.006,0.002-0.002,0-0.013,0.004c-0.054,0.02-0.11,0.034-0.166,0.048
		c-0.025,0.006-0.051,0.01-0.077,0.015c-0.017,0.002-0.073,0.009-0.089,0.011c-0.104,0.008-0.208,0.005-0.312-0.001
		c-0.191-0.011-0.42-0.064-0.696-0.149c-0.628-0.193-1.207-0.528-1.758-0.878c-0.648-0.411-1.243,0.616-0.599,1.024
		c1.07,0.678,2.358,1.346,3.666,1.155c0.841-0.122,1.469-0.74,1.705-1.54c0.065-0.219,0.094-0.447,0.104-0.678
		c1.477,0.263,2.955,0.526,4.429,0.813c6.102,1.186,11.663,3.651,17.174,6.455c10.054,5.116,19.273,11.482,27.11,19.62
		c7.404,7.688,13.451,16.743,19.008,25.82c5.469,8.933,9.839,18.82,12.265,29.027c0.056,0.221,0.198,0.339,0.362,0.389
		c4.697,7.367,5.221,16.605,6.835,24.987c2.128,11.049,3.315,21.53,2.405,32.8c-0.862,10.667-3.597,20.97-6.754,31.153
		c-1.725,5.563-4.557,10.143-7.917,14.835c-3.545,4.95-6.414,11.198-12.142,13.906c-0.691,0.327-0.089,1.35,0.599,1.024
		c4.075-1.927,6.409-5.216,8.777-8.919c3.475-5.432,7.698-10.231,10.269-16.207c4.361-10.136,6.718-21.789,8.041-32.693
		c1.368-11.279,0.911-22.795-1.624-33.874c-2.156-9.419-2.246-19.943-7.83-28.191c-4.943-20.299-17.288-39.755-31.454-54.897
		c-7.798-8.335-17.293-14.537-27.35-19.806c-5.118-2.681-10.315-4.927-15.948-6.254c-2.149-0.506-4.315-0.903-6.48-1.289
		c-0.344-0.875-1.051-1.591-2.02-1.703c-0.828-0.096-1.567,0.353-2.175,0.937c-1.614-0.309-3.222-0.648-4.818-1.057
		c2.519-0.87,4.952-2.322,7.083-3.46c5.03-2.685,10.466-4.448,15.63-6.807c0.13,0.135,0.314,0.216,0.548,0.16
		c10.703-2.587,21.381-1.208,31.435,2.435c0.038,0.017,0.075,0.035,0.119,0.044c9.793,3.567,18.992,9.276,27.039,15.568
		c16.605,12.983,29.814,30.58,39.086,49.406c10.941,22.215,12.671,48.067,11.941,72.517c-0.338,11.312-3.72,22.372-8.615,32.505
		c-0.896,0.911-1.759,1.848-2.589,2.811c0.897-2.822,1.824-5.635,2.761-8.446c0.141-0.424-0.19-0.698-0.537-0.717
		c0.457-0.881,0.91-1.765,1.356-2.656c0.341-0.682-0.682-1.283-1.024-0.599c-2.765,5.526-5.656,10.885-9.573,15.697
		c-0.479,0.588,0.356,1.432,0.839,0.839c2.783-3.419,5.066-7.105,7.152-10.932c-1.028,3.104-2.036,6.213-3.002,9.336
		c-1.241,1.661-2.366,3.407-3.324,5.271c-0.349,0.679,0.675,1.279,1.024,0.599c0.355-0.691,0.74-1.36,1.138-2.02
		c-0.154,0.521-0.314,1.041-0.464,1.563c-0.02,0.069-0.017,0.13-0.015,0.19c-0.755,1.147-1.528,2.282-2.316,3.405
		c-1.748,2.489-3.608,4.917-5.561,7.247c-1.764,2.105-4.096,3.396-6.015,5.299c-0.223,0.221-0.207,0.488-0.081,0.694
		C166.297,277.315,156.19,281.921,146.072,286.496z M79.144,84.22c0.082-0.008,0.164-0.01,0.246-0.005c0.002,0,0.001,0,0.003,0
		c0.037,0.007,0.073,0.016,0.109,0.025c0.037,0.01,0.073,0.022,0.109,0.034c0,0,0,0,0,0c0.068,0.032,0.133,0.071,0.196,0.113
		c0.006,0.004,0.015,0.011,0.024,0.017c0.02,0.017,0.039,0.034,0.058,0.051c-0.327-0.058-0.654-0.116-0.981-0.175
		c0.017-0.005,0.029-0.01,0.049-0.016C78.987,84.254,79.111,84.229,79.144,84.22z M194.61,249.335
		c-0.612,1.11-1.25,2.206-1.906,3.291c0.149-0.49,0.3-0.979,0.451-1.468C193.623,250.538,194.11,249.932,194.61,249.335z
		 M178.516,271.972c1.636-1.414,3.376-2.609,4.887-4.267c1.785-1.959,3.322-4.19,4.899-6.314c3.465-4.666,6.459-9.664,9.099-14.836
		c4.909-9.617,7.95-20.108,8.925-30.855c1.201-13.241-0.009-27.28-1.743-40.421c-0.794-6.017-1.258-12.011-3.098-17.83
		c-1.762-5.571-3.982-11.041-6.405-16.355c-9.094-19.941-23.716-38.706-41.157-52.024c-7.38-5.635-15.669-10.735-24.467-14.195
		c2.987-0.783,5.721-2.254,8.269-4.035c0.622-0.435,0.03-1.464-0.599-1.024c-2.956,2.066-6.138,3.705-9.72,4.288
		c-9.298-3.351-19.122-4.796-29.018-3.06c0.214-0.114,0.432-0.218,0.644-0.336c0.121,0.086,0.28,0.119,0.472,0.045
		c2.287-0.883,4.45-2.046,6.737-2.929c0.008-0.003,0.012-0.01,0.02-0.013c0.287,0.083,0.613-0.023,0.687-0.401
		c0.421-2.171-0.088-4.341,2.058-5.678c1.706-1.063,5.119,0.188,5.271,2.299c0.018,0.248,0.161,0.407,0.338,0.493
		c-0.036,0.214,0.026,0.448,0.249,0.605c2.9,2.047,6.002,0.792,9.097,0.007c-0.078,0.116-0.16,0.229-0.229,0.353
		c-0.167,0.298-0.049,0.575,0.158,0.739c-0.323,0.284-0.34,0.897,0.196,1.011c1.645,0.349,3.376,0.655,5.058,0.412
		c0.368-0.053,0.764-0.168,1.104-0.361c0.094,0.136,0.238,0.24,0.44,0.263c9.176,1.022,17.58,5.27,25.397,9.962
		c8.058,4.837,15.572,10.516,22.248,17.132c14.15,14.023,25.06,32.103,31.62,50.846c3.46,9.888,4.609,20.352,6.771,30.555
		c1.163,5.487,2.002,10.624,1.788,16.252c-0.209,5.488-0.526,10.944-0.634,16.442c-0.214,10.843-3.498,22.083-8.299,31.761
		c-1.974,3.979-4.383,7.725-6.46,11.648c-1.951,3.686-3.232,7.997-6.652,10.641c-0.288,0.223-0.242,0.526-0.055,0.735
		c-3.796,2.094-7.689,4.047-11.756,5.782C182.605,270.185,180.562,271.081,178.516,271.972z M234.374,296.677
		c-0.22,0.113-0.296,0.296-0.289,0.48c-9.357-2.363-14.325-9.311-20.632-15.967c-6.096-6.434-14.27-11.516-23.064-13.073
		c0.746-0.349,1.495-0.692,2.239-1.046c2.83-1.347,5.612-2.836,8.352-4.422c1.164,1.353,2.214,2.857,3.809,3.709
		c0.674,0.36,1.274-0.664,0.599-1.024c-1.4-0.748-2.365-2.071-3.381-3.293c0.408-0.241,0.811-0.49,1.217-0.735
		c1.653,1.653,3.307,3.307,4.96,4.96c0.541,0.541,1.38-0.297,0.839-0.839c-1.584-1.584-3.169-3.169-4.753-4.753
		c0.74-0.454,1.477-0.912,2.21-1.378c1.914,2.023,2.991,4.539,5.339,6.184c0.628,0.44,1.22-0.589,0.599-1.024
		c-2.163-1.515-3.211-3.904-4.932-5.808c1.78-1.149,3.545-2.322,5.291-3.525c1.497,2.13,3.232,4.029,5.074,5.871
		c0.541,0.542,1.38-0.297,0.839-0.839c-1.79-1.791-3.485-3.625-4.937-5.699c0.571-0.397,1.133-0.803,1.701-1.204
		c1.722,0.932,3.155,2.371,4.062,4.107c0.354,0.678,1.378,0.078,1.024-0.599c-0.91-1.741-2.331-3.243-4.014-4.267
		c0.647-0.461,1.292-0.922,1.935-1.386c1.48,1.669,2.817,3.641,4.783,4.707c0.672,0.365,1.271-0.659,0.599-1.024
		c-1.804-0.979-3.068-2.813-4.425-4.381c0.729-0.531,1.462-1.06,2.185-1.592c1.662,1.442,3.459,2.728,5.036,4.268
		c0.547,0.535,1.387-0.304,0.839-0.839c-1.535-1.499-3.28-2.755-4.904-4.15c0.499-0.369,0.995-0.738,1.491-1.106
		c1.172,1.111,2.577,1.854,3.36,3.339c0.357,0.677,1.381,0.077,1.024-0.599c-0.809-1.533-2.195-2.337-3.415-3.459
		c0.118-0.088,0.237-0.176,0.355-0.264c0.9,0.35,1.805,0.684,2.711,1.017c0.358,0.857,0.522,1.83,1.175,2.546
		c0.059,0.065,0.124,0.107,0.189,0.138c0.301,14.41-0.616,29.323,8.213,41.629c0.141,0.197,0.342,0.261,0.536,0.249
		c0.088,0.632,0.023,1.2-0.159,1.713c-0.369,0.391-0.756,0.769-1.164,1.128c-0.236,0.207-0.227,0.466-0.104,0.669
		C236.085,295.732,235.218,296.247,234.374,296.677z M240.757,288.355c-0.231,1.204-0.707,2.291-1.36,3.275
		c-0.012-0.15-0.026-0.3-0.051-0.456c-0.059-0.364-0.356-0.473-0.634-0.409c-0.006-0.009-0.005-0.017-0.012-0.026
		c-9.119-12.71-7.651-28.242-8.103-43.057c0.044-0.002,0.085,0.005,0.133-0.008c1.173-0.314,2.269-0.835,3.353-1.374
		C234.134,260.646,235.188,274.972,240.757,288.355z M234.645,245.36c-0.019,0.001-0.036,0.007-0.055,0.009
		c-0.005-0.008-0.012-0.013-0.017-0.021C234.598,245.354,234.621,245.359,234.645,245.36z M234.02,245.062
		c-0.075,0.006-0.153,0.023-0.232,0.063c-1.094,0.547-2.187,1.087-3.373,1.405c-0.062,0.016-0.105,0.048-0.153,0.076
		c-0.039-0.026-0.07-0.057-0.118-0.076c-0.414-0.163-0.832-0.314-1.249-0.469c-0.138-0.302-0.308-0.589-0.54-0.844
		c-0.354-0.388-0.848-0.112-0.965,0.279c-0.305-0.112-0.607-0.228-0.911-0.342c0.882-0.679,1.764-1.359,2.626-2.069
		C230.866,243.432,232.494,244.119,234.02,245.062z M237.862,233.995c3.269-7.948,7.753-15.399,10.969-23.393
		c1.923-4.781,3.233-9.697,4.324-14.722c1.043-4.809,2.83-9.47,3.453-14.37c2.374-18.67-2.228-39.075-9.51-56.209
		c-0.108-0.253-0.224-0.503-0.333-0.755h8.131c0.298,0.776,0.594,1.552,0.88,2.326c5.735,15.489,7.915,33.519,7.241,49.986
		c-0.357,8.721-3.478,16.933-5.768,25.263c-2.211,8.04-4.804,15.932-9.322,23.006c-0.118,0.185-0.111,0.362-0.041,0.511
		C244.501,228.372,241.178,231.18,237.862,233.995z M264.608,208.522c-4.124,5.528-8.316,10.5-13.767,14.755
		c-0.271,0.212-0.536,0.431-0.806,0.644c3.66-6.26,6.018-13.09,7.976-20.074c2.356-8.406,5.322-16.709,6.096-25.453
		c0.774-8.743-0.296-17.736-1.38-26.408c-1.082-8.654-2.889-17.203-5.806-25.43c-0.238-0.673-0.488-1.341-0.736-2.01h15.858
		c1.658,5.315,2.832,10.779,4.159,16.19c0.951,3.879,2.474,7.646,2.337,11.69c-0.147,4.329-0.851,8.7-1.264,13.012
		c-1.278,13.337-2.547,27.699-9.667,39.363C266.574,206.012,265.563,207.242,264.608,208.522z M286.602,159.067
		c-0.695,13.131-3.117,26.391-11.443,36.953c-1.304,1.654-2.685,3.239-4.077,4.814c4.704-10.045,6.073-21.61,7.114-32.529
		c0.402-4.213,0.814-8.426,1.226-12.638c0.448-4.581-0.081-7.835-1.299-12.241c-1.737-6.283-2.99-12.665-4.873-18.881h9.636
		C286.178,135.749,287.221,147.363,286.602,159.067z M261.918,84.631c-2.45-2.955-5.063-5.743-7.909-8.217
		c-0.38-0.33-0.773-0.656-1.171-0.981l40.578-40.579l9.139,9.139L261.918,84.631z"/>
</g>
</svg>
