<?xml version="1.0" encoding="utf-8"?>
<!-- Generator: Adobe Illustrator 17.0.0, SVG Export Plug-In . SVG Version: 6.00 Build 0)  -->
<!DOCTYPE svg PUBLIC "-//W3C//DTD SVG 1.1//EN" "http://www.w3.org/Graphics/SVG/1.1/DTD/svg11.dtd">
<svg version="1.1" id="Режим_изоляции"
	 xmlns="http://www.w3.org/2000/svg" xmlns:xlink="http://www.w3.org/1999/xlink" x="0px" y="0px" width="440.561px"
	 height="1028.423px" viewBox="-642.423 -175.141 440.561 1028.423" enable-background="new -642.423 -175.141 440.561 1028.423"
	 xml:space="preserve">
<path fill="#a9907a" d="M-209.538-144.056c-5.438-6.079-12.476-9.357-21.113-9.838l-50.385-2.801c-5.758-0.32-10.917,1.559-14.716,4.958
	s-5.558,9.077-6.559,14.076c-10.837,0.12-12.196-1.4-17.635-7.478c-2.719-3.039-6.118-6.838-11.716-10.037
	c-11.037-9.277-25.871-15.156-41.707-16.036l-51.824-2.881c-30.231-1.68-44.626-2.48-73.297,6.756
	c-62.421,18.912-103.849,62.818-142.68,150.91c-2.439,4.919-1.24,9.317,2.919,12.437c4.159,3.12,9.238,2.68,13.036-0.719
	l9.877-8.837c33.431-29.91,50.905-45.544,108.488-42.344c25.214,1.401,43.853,21.463,45.362,47.143
	c-1.39,1.68-1.969,3.496-2.097,5.802l-0.048,67.866l-0.014,20.216l-0.028,41.152l-0.015,19.614l-0.215,442.597h21.57l-0.004-7.284
	l-0.01-20.217l-0.008-158.444L-442.55,9.054l60.461,3.361l0.031,63.132c-0.556,1.181-0.83,2.469-0.912,3.965l0.198,61.381
	c-0.091,1.645,0.187,3.185,0.749,4.562l0.152,443.045h20.829l-0.223-436.303l-0.016-20.939l-0.03-41.877l-0.014-18.774
	l-0.044-59.759c8.463-1.857,16.374-5.169,23.187-9.711c5.238-3.319,8.277-6.038,11.317-8.758c6.079-5.438,7.598-6.797,18.434-6.918
	c-1,4.998,0.88,10.157,4.278,13.956s8.998,6.998,14.755,7.318l50.385,2.801c7.878,1.16,15.995-1.999,22.073-7.437
	c6.079-5.438,10.117-13.155,9.158-21.873l5.681-102.209C-200.941-129.861-204.099-137.977-209.538-144.056z M-222.254-123.102
	l-5.681,102.209c-0.32,5.758-4.879,9.836-10.637,9.517l-50.385-2.801c1-4.998-0.88-10.157-5.718-14.036
	c-3.399-3.799-8.998-6.998-14.755-7.318c-17.275-0.96-24.033,3.719-32.39,11.196c-2.279,2.039-5.318,4.758-9.797,7.398
	c-9.037,6.718-19.275,9.037-30.791,8.396l-61.9-3.441c-1.639-35.467-28.989-62.98-63.539-64.901
	c-45.386-1.8-70.419,6.916-92.972,22.99c31.072-52.423,63.662-80.214,108.489-94.327c25.032-8.717,36.549-8.077,66.78-6.396
	l51.824,2.881c11.517,0.64,22.113,4.839,29.671,11.757c4.159,3.12,6.877,6.159,8.917,8.438c7.478,8.358,13.675,13.756,30.949,14.716
	c5.758,0.32,11.676-2.239,15.475-5.638c4.559-4.079,6.998-8.998,6.559-14.076l50.385,2.801c2.88,0.16,4.998,1,7.037,3.279
	C-222.694-128.18-222.093-125.981-222.254-123.102z"/>
<polygon fill="#a9907a" points="-514.388,651.26 -496.078,634.207 -412.167,724.502 -328.231,634.207 -309.921,651.26 -412.167,761.21 "/>
<polygon fill="#a9907a" points="-514.388,743.333 -496.078,726.279 -412.167,816.575 -328.231,726.279 -309.921,743.333 -412.167,853.282 "/>
</svg>
