<?xml version="1.0" encoding="utf-8"?>
<!-- Generator: Adobe Illustrator 17.0.0, SVG Export Plug-In . SVG Version: 6.00 Build 0)  -->
<!DOCTYPE svg PUBLIC "-//W3C//DTD SVG 1.1//EN" "http://www.w3.org/Graphics/SVG/1.1/DTD/svg11.dtd">
<svg version="1.1" id="Слой_1" xmlns="http://www.w3.org/2000/svg" xmlns:xlink="http://www.w3.org/1999/xlink" x="0px" y="0px"
	 width="487.872px" height="488.356px" viewBox="30.837 120.837 487.872 488.356"
	 enable-background="new 30.837 120.837 487.872 488.356" xml:space="preserve">
<g>
	<path fill="#343e42" d="M244.8,548.763c52.186,0,99.628-18.502,136.633-49.814L485.5,603.5c3.795,3.795,8.54,5.693,13.758,5.693
		s9.963-1.898,13.758-5.693c7.591-7.591,7.591-19.926,0-27.516L408.949,471.433c30.837-37.005,49.814-84.921,49.814-136.633
		c0-118.13-95.833-213.963-213.963-213.963c-117.656,0-213.963,96.307-213.963,213.963C30.837,452.93,127.144,548.763,244.8,548.763
		z M244.8,159.74c96.781,0,175.06,78.753,175.06,175.06c0,96.781-78.279,175.06-175.06,175.06S69.74,431.107,69.74,334.8
		C69.74,238.493,148.493,159.74,244.8,159.74z"/>
</g>
</svg>
