<?xml version="1.0" encoding="utf-8"?>
<!-- Generator: Adobe Illustrator 17.0.0, SVG Export Plug-In . SVG Version: 6.00 Build 0)  -->
<!DOCTYPE svg PUBLIC "-//W3C//DTD SVG 1.1//EN" "http://www.w3.org/Graphics/SVG/1.1/DTD/svg11.dtd">
<svg version="1.1" id="objects" xmlns="http://www.w3.org/2000/svg" xmlns:xlink="http://www.w3.org/1999/xlink" x="0px" y="0px"
	 width="329.833px" height="333.895px" viewBox="0 0 329.833 333.895" enable-background="new 0 0 329.833 333.895"
	 xml:space="preserve">
<path fill="#B5855B" d="M321.083,188.36h-8.805c-0.014,0.05-0.029,0.099-0.045,0.148h1.038c0.052,0.97,0.087,1.933,0.087,2.875
	c0,33.182-14.682,70.882-36.532,93.818c-2.008,2.107-4.78,3.266-7.805,3.266h-0.016c-0.879,2.218-2.383,4.09-4.513,5.512
	c-12.567,8.393-29.605,16.237-47.978,21.619c-1.454,0.427-7.529,6.997-8.953,6.997c-0.767,0-8.598,3.304-9.31,3.187
	c-2.393,1.872-5.379-2.668-10.732-2.668c-11.572,0-50.441-0.883-66.635-3.582c-1.613-0.269-5.924-0.99-13.187-9.996
	c-3.384,2.034-7.319,3.724-11.046,3.724c-1.405,0-2.759-0.22-4.029-0.654c-8.112-2.774-15.256-6.092-21.229-9.858
	c-14.986-9.45-27.563-25.128-37.379-46.605c-1.485-3.247-4.735-11.357-5.759-14.217c-5.979-16.729-10.034-35.477-11.669-53.419
	h0.621c-0.012-0.049-0.021-0.098-0.031-0.148H8.535c1.602,19.284,5.937,39.569,12.448,57.609c1.078,2.985,4.503,11.44,6.066,14.827
	c10.34,22.397,23.588,38.75,39.374,48.606c6.292,3.927,13.817,7.386,22.364,10.279c1.336,0.453,2.762,0.682,4.242,0.682
	c3.926-0.001,8.071-1.762,11.635-3.885c7.652,9.393,12.192,10.143,13.892,10.424c17.057,2.816,58,3.736,70.191,3.736
	c5.638,0,8.783,4.736,11.303,2.786c0.751,0.119,8.999-3.325,9.808-3.325c1.499,0,7.899-6.853,9.43-7.298
	c19.354-5.614,37.301-13.792,50.54-22.545c2.242-1.485,3.826-3.436,4.752-5.748h0.017c3.186,0,6.106-1.211,8.222-3.409
	c23.015-23.918,38.481-63.238,38.481-97.84C321.299,191.665,321.222,190.027,321.083,188.36z"/>
<g>
	<path fill="#A97C50" d="M291.878,239.485c-8.948,21.152-31.251,37.715-54.02,52.457c-19.634,12.713-51.008,18.405-73.389,18.405
		c-6.725,0-13.727,0.783-20.499,1.542c-6.605,0.74-13.436,1.506-19.83,1.506c-3.431,0-7.382-0.291-10.259-0.742
		c0.463,0.58,0.94,1.158,1.424,1.723c2.487,0.305,5.973,0.528,8.835,0.528c6.479,0,13.352-0.77,19.999-1.515
		c6.73-0.756,13.689-1.533,20.33-1.533c22.604,0,54.315-5.766,74.208-18.647c22.972-14.876,45.484-31.608,54.591-53.137
		c5.318-12.574,8.38-34.078,8.993-51.221h-1.509C300.142,205.833,297.123,227.09,291.878,239.485z"/>
	<path fill="#A97C50" d="M57.579,267.251c-4.019-5.695-10.032-16.859-13.183-23.965c-0.399,0.357-0.792,0.711-1.177,1.061
		c3.146,7.029,9.141,18.123,13.128,23.774c11.166,15.824,30.213,33.415,45.289,41.826c0.366,0.205,1.475,0.88,1.85,1.07
		c0.504-0.31,0.999-0.632,1.478-0.957c-0.629-0.3-1.987-1.092-2.592-1.43C87.466,300.315,68.629,282.911,57.579,267.251z"/>
	<path fill="#A97C50" d="M32.605,190.753c0,14.82,5.361,38.494,10.601,53.593c0.442-0.216,0.901-0.421,1.377-0.615
		c-5.158-14.901-10.47-38.353-10.47-52.978c0-0.636,0.001-1.268,0.001-1.9h-1.508C32.605,189.485,32.605,190.117,32.605,190.753z"/>
	<path fill="#A97C50" d="M95.084,311.6c-15.168-9.489-33.98-28.7-44.731-45.678c-2.605-4.115-9.27-15.823-11.453-20.631
		c-0.422,0.41-0.82,0.805-1.194,1.184c2.148,4.679,8.765,16.27,11.312,20.292c10.862,17.154,29.884,36.575,45.23,46.174
		c0.245,0.153,1.628,0.846,1.878,0.993c0.106,0.038,0.212,0.077,0.319,0.114c0.028,0.01,0.061,0.012,0.089,0.021
		c0.667-0.083,1.378-0.275,2.108-0.539C97.452,312.932,95.917,312.12,95.084,311.6z"/>
	<path fill="#A97C50" d="M237.032,300.714c-21.225,12.284-54.376,16.598-77.813,15.422c-7.042-0.353-14.415,0.103-21.546,0.541
		c-6.281,0.388-13.715,0.752-19.844,0.577c0.654,0.628,1.112,1.138,1.716,1.657c5.605,0.055,12.566-0.308,18.226-0.654
		c7.087-0.438,14.415-0.889,21.369-0.541c23.669,1.185,57.18-3.189,78.686-15.633c10.353-5.991,20.271-12.086,29.519-19.033
		c-0.245-0.521-0.485-1.009-0.712-1.442C257.382,288.578,247.425,294.7,237.032,300.714z"/>
	<path fill="#A97C50" d="M37.574,246.294c0.412-0.329,0.851-0.665,1.325-1.003c-5.506-16.116-10.187-40.113-10.039-56.438h-1.581
		C27.131,205.508,31.908,229.883,37.574,246.294z"/>
	<path fill="#A97C50" d="M308.749,189.592c-0.927,18.503-5.482,44.722-12.397,59.023c-5.951,12.314-16.963,23.238-29.334,32.652
		c0.377,0.321,0.795,0.67,1.251,1.037c12.417-9.493,23.479-20.526,29.507-33c7.005-14.495,11.616-40.972,12.552-59.635
		c0.013-0.274,0.013-0.545,0.017-0.817h-1.581C308.759,189.098,308.76,189.345,308.749,189.592z"/>
	<path fill="#A97C50" d="M290.671,190.038c-0.961,16.311-5.18,39.393-11.389,51.951c-9.407,19.035-30.894,33.104-52.712,45.474
		c-14.394,8.162-37.541,13.23-60.407,13.23c-2.833,0-5.634-0.08-8.326-0.237c-1.807-0.107-3.695-0.158-5.773-0.158
		c-4.38,0-8.887,0.236-13.244,0.467c-4.282,0.226-8.71,0.459-12.939,0.459c-7.583,0-17.307-0.651-25.262-5.726
		c-13.302-8.483-29.74-25.569-39.088-40.626c-2.581-4.159-6.85-12.508-8.938-17.439c-0.397,0.336-0.798,0.674-1.199,1.016
		c2.071,4.843,6.311,13.118,8.856,17.219c9.452,15.224,26.089,32.511,39.558,41.102c8.283,5.283,18.286,5.962,26.073,5.962
		c4.27,0,8.716-0.234,13.019-0.46c4.339-0.23,8.824-0.466,13.164-0.466c2.047,0,3.906,0.05,5.686,0.154
		c2.72,0.16,5.551,0.242,8.413,0.242c23.112,0,46.544-5.145,61.152-13.428c22.026-12.487,43.732-26.718,53.319-46.116
		c6.296-12.739,10.573-36.069,11.541-52.53c0.026-0.427,0.035-0.852,0.034-1.275h-1.508
		C290.704,189.247,290.695,189.643,290.671,190.038z"/>
	<path fill="#A97C50" d="M51.554,238.983c0.488-0.125,0.978-0.247,1.466-0.363c-4.958-14.208-9.198-35.16-9.156-49.768h-1.509
		C42.316,203.574,46.571,224.646,51.554,238.983z"/>
	<path fill="#A97C50" d="M277.058,229.711c-7.34,18.616-26.422,33.522-45.951,46.859c-16.83,11.495-44.046,17.124-63.552,17.604
		c-5.87,0.143-11.962,0.978-17.854,1.784c-6.307,0.866-12.828,1.758-18.896,1.758c-7.07,0-12.598-1.176-17.392-3.698
		c-13.163-6.929-29.95-21.688-39.914-35.099c-4.852-6.528-8.841-13.795-12.326-22.366c-0.394,0.322-0.8,0.656-1.217,1
		c3.501,8.528,7.491,15.752,12.332,22.267c10.082,13.568,27.082,28.513,40.422,35.532c5.021,2.643,10.77,3.872,18.095,3.872
		c6.17,0,12.744-0.9,19.102-1.77c5.851-0.803,11.9-1.631,17.686-1.772c19.728-0.484,47.281-6.198,64.366-17.866
		c19.727-13.474,39.015-28.558,46.504-47.552c4.039-10.245,6.233-27.099,6.678-41.412h-1.509
		C283.192,203.006,281.032,219.634,277.058,229.711z"/>
	<path fill="#A97C50" d="M49.907,192.805c0.312,12.682,5.6,32.752,10.33,45.606c0.513-0.097,1.012-0.188,1.498-0.274
		c-4.724-12.762-10.01-32.759-10.32-45.369c-0.032-1.311-0.063-2.615-0.091-3.915h-1.509
		C49.843,190.164,49.875,191.482,49.907,192.805z"/>
	<path fill="#A97C50" d="M268.105,233.867c-1.457,4.067-8.203,8.675-14.727,13.13c-5.285,3.609-10.278,7.02-12.342,10.086
		c-11.725,17.421-16.957,20.297-38.449,27.232c-7.79,2.514-20.956,4.817-29.975,5.244c-3.353,0.16-7.534,0.54-11.961,0.945
		c-7.577,0.691-16.165,1.474-23.847,1.474c-6.932,0-12.022-0.632-15.563-1.935c-20.112-7.406-38.587-25.848-48.297-39.391
		c-3.326-4.641-5.855-10.129-8.091-17.106c-0.383,0.308-0.799,0.644-1.249,1.011c2.252,6.908,4.79,12.339,8.114,16.976
		c9.834,13.716,28.568,32.402,49.002,39.927c3.709,1.364,8.97,2.028,16.083,2.028c7.75,0,16.374-0.787,23.983-1.482
		c4.411-0.402,8.577-0.781,11.895-0.94c9.132-0.433,22.47-2.767,30.367-5.314c21.907-7.072,27.246-10.009,39.237-27.828
		c1.901-2.825,6.779-6.155,11.941-9.682c6.724-4.591,13.674-9.338,15.296-13.866c3.825-10.679,8.853-31.689,9.75-45.524h-1.509
		C276.874,202.512,271.894,223.29,268.105,233.867z"/>
	<path fill="#A97C50" d="M63.683,234.783c0.536-0.083,1.038-0.16,1.493-0.228c-4.074-13.382-7.363-32.615-8.162-45.703h-1.512
		C56.299,201.977,59.594,221.264,63.683,234.783z"/>
	<path fill="#A97C50" d="M262.146,191.951c2.835,10.62,5.514,20.652,1.648,29.528c-4.903,11.264-16.398,26.135-27.329,35.358
		c-1.654,1.395-3.273,2.793-4.874,4.176c-11.575,9.998-22.51,19.441-39.924,21.512c-3.606,0.429-7.8,1.099-12.237,1.81
		c-9.577,1.532-20.428,3.27-29.633,3.27c-4.995,0-8.957-0.501-12.112-1.53c-2.114-0.688-5.566-1.51-9.22-2.376
		c-6.588-1.567-14.054-3.34-17.305-5.109c-11.532-6.282-24.55-20.338-32.192-30.465c-8.696-11.519-14.515-34.569-16.305-47.253
		c-0.482-3.422,0.093-7.599,1.196-12.02h-1.549c-1.085,4.458-1.639,8.694-1.141,12.232c1.812,12.838,7.725,36.201,16.593,47.95
		c7.735,10.247,20.933,24.483,32.676,30.879c3.429,1.867,10.999,3.666,17.677,5.252c3.623,0.862,7.045,1.675,9.101,2.347
		c3.31,1.079,7.424,1.602,12.581,1.602c9.323,0,20.24-1.746,29.87-3.289c4.424-0.708,8.603-1.377,12.179-1.803
		c17.872-2.125,28.976-11.713,40.73-21.866c1.597-1.381,3.212-2.772,4.86-4.164c11.089-9.358,22.756-24.459,27.741-35.911
		c4.074-9.358,1.202-20.117-1.576-30.52c-0.239-0.898-0.48-1.803-0.718-2.709h-1.559
		C261.596,189.891,261.873,190.925,262.146,191.951z"/>
	<path fill="#A97C50" d="M254.091,196.594c1.985,9.938,3.861,19.323-0.225,27.312c-5.191,10.148-16.68,23.298-27.317,31.267
		c-2.7,2.023-5.4,4.22-8.262,6.547c-10.999,8.951-23.468,19.097-38.145,20.041c-2.506,0.161-5.02,0.369-7.682,0.591
		c-5.538,0.459-11.265,0.934-16.771,0.934c-7.471,0-13.181-0.865-17.966-2.726c-5.451-2.115-28.563-12.073-33.063-14.867
		c-9.003-5.584-16.902-17.694-23.25-27.423c-0.838-1.284-1.644-2.518-2.416-3.684c-6.757-10.185-8.452-25.844-9.511-39.723
		c-0.139-1.82,0.059-3.853,0.491-6.01h-1.531c-0.417,2.181-0.607,4.25-0.465,6.124c1.073,14.068,2.801,29.957,9.759,40.443
		c0.771,1.16,1.573,2.393,2.409,3.674c6.429,9.855,14.43,22.118,23.719,27.879c4.871,3.025,28.517,13.132,33.31,14.993
		c4.966,1.928,10.85,2.827,18.514,2.827c5.57,0,11.327-0.478,16.898-0.94c2.653-0.22,5.16-0.429,7.653-0.588
		c15.157-0.975,27.824-11.282,39-20.375c2.847-2.317,5.537-4.506,8.214-6.51c10.799-8.09,22.472-21.459,27.756-31.788
		c4.324-8.455,2.309-18.541,0.359-28.295c-0.491-2.454-0.987-4.955-1.391-7.444h-1.528
		C253.065,191.445,253.582,194.044,254.091,196.594z"/>
	<path fill="#A97C50" d="M249.313,189.366c2.716,9.189,5.279,17.868,2.131,25.652c-4.008,9.907-13.674,23.085-22.983,31.336
		c-1.024,0.907-2.061,1.838-3.113,2.781c-11.038,9.896-23.55,21.11-39.227,23.334c-4.052,0.574-8.585,1.634-13.384,2.753
		c-7.904,1.846-16.078,3.754-23.132,3.754c-2.863,0-5.288-0.311-7.411-0.951c-4.999-1.505-28.543-12.708-33.059-15.032
		c-6.707-3.451-10.166-9.219-13.828-15.325c-1.818-3.032-3.697-6.166-6.041-9.113c-7.544-9.487-11.514-25.648-13.516-37.535
		c-0.571-3.394,0.038-7.674,1.162-12.167h-1.55c-1.107,4.539-1.694,8.889-1.101,12.418c2.032,12.061,6.079,28.484,13.823,38.224
		c2.281,2.868,4.134,5.959,5.928,8.948c3.775,6.297,7.343,12.244,14.432,15.892c4.685,2.41,28.128,13.575,33.315,15.135
		c2.267,0.684,4.832,1.016,7.846,1.016c7.227,0,15.487-1.929,23.476-3.792c4.767-1.113,9.267-2.165,13.252-2.728
		c16.131-2.29,28.824-13.669,40.022-23.707c1.05-0.94,2.086-1.869,3.107-2.774c9.463-8.386,19.296-21.802,23.38-31.899
		c3.348-8.273,0.587-17.612-2.082-26.645c-0.009-0.029-0.017-0.059-0.025-0.087h-1.571
		C249.212,189.024,249.262,189.196,249.313,189.366z"/>
	<path fill="#A97C50" d="M247.591,209.884c-3.68,14.836-16.003,29.535-25.437,37.616c-9.997,8.561-32.077,14.629-47.948,17.223
		c-4.383,0.717-8.094,1.81-11.684,2.865c-4.725,1.39-8.805,2.589-13.281,2.589c-2.532,0-4.998-0.391-7.54-1.199
		c-10.98-3.481-31.104-13.836-38.943-20.958c-10.301-9.356-17.912-29.009-20.886-44.337c-1.11-5.727-0.234-10.285,1.346-14.83
		h-1.592c-1.517,4.537-2.364,9.293-1.234,15.116c3.021,15.574,10.795,35.579,21.353,45.169c7.97,7.239,28.381,17.751,39.499,21.278
		c2.693,0.855,5.31,1.27,7.998,1.27c4.693,0,9.072-1.288,13.706-2.652c3.546-1.043,7.212-2.121,11.502-2.822
		c16.063-2.626,38.453-8.804,48.687-17.565c9.604-8.226,22.152-23.218,25.919-38.399c1.299-5.231-0.107-13.485-1.891-21.395h-1.546
		C247.4,196.693,248.834,204.878,247.591,209.884z"/>
	<path fill="#A97C50" d="M240.018,211.921c-4.203,13.525-16.393,26.461-25.558,33.43c-9.706,7.38-30.465,11.807-45.292,13.352
		c-4.102,0.428-7.599,1.24-10.979,2.024c-3.814,0.885-7.416,1.722-11.06,1.722c-2.83,0-5.532-0.508-8.262-1.553
		c-9.974-3.816-28.039-14.482-34.906-21.489c-9.023-9.205-15.007-27.801-16.934-42.145c-0.421-3.135-0.228-5.859,0.342-8.41h-1.533
		c-0.549,2.611-0.731,5.423-0.304,8.612c1.96,14.59,8.086,33.545,17.352,43c6.991,7.133,25.332,17.973,35.443,21.841
		c2.905,1.11,5.784,1.651,8.802,1.651c3.816,0,7.5-0.855,11.4-1.761c3.336-0.773,6.786-1.574,10.793-1.993
		c15.022-1.567,36.096-6.082,46.049-13.651c9.341-7.104,21.777-20.319,26.086-34.183c1.727-5.561,0.289-15.097-1.214-23.517h-1.533
		C240.204,197.171,241.663,206.629,240.018,211.921z"/>
	<path fill="#A97C50" d="M229.948,193.176c2.064,9.1,4.195,18.509-0.026,26.496c-3.957,7.482-13.677,12.403-23.077,17.164
		c-3.538,1.792-6.881,3.483-9.943,5.312c-0.904,0.539-1.771,1.063-2.613,1.568c-8.47,5.105-14.066,8.475-23.727,9.139
		c-0.528,0.037-1.08,0.056-1.642,0.056c-8.244,0-18.255-3.882-26.301-7c-1.18-0.458-2.315-0.897-3.394-1.306
		c-3.586-1.354-7.663-2.314-11.979-3.327c-9.925-2.332-20.186-4.744-24.96-12.229c-3.834-6.017-3.756-11.423-3.665-17.684
		c0.032-2.22,0.065-4.513-0.075-6.963c-0.207-3.6-0.151-11.391,0.378-15.55h-1.521c-0.517,4.302-0.569,12.039-0.362,15.638
		c0.138,2.394,0.104,4.661,0.073,6.854c-0.091,6.232-0.177,12.119,3.902,18.517c5.103,8,15.668,10.484,25.886,12.885
		c4.268,1.004,8.298,1.951,11.79,3.271c1.075,0.406,2.206,0.846,3.384,1.301c8.161,3.164,18.317,7.103,26.845,7.103
		c0.596,0,1.183-0.02,1.745-0.059c10.024-0.69,15.743-4.137,24.401-9.352c0.841-0.504,1.706-1.026,2.607-1.564
		c3.019-1.801,6.339-3.482,9.852-5.261c9.61-4.868,19.546-9.9,23.729-17.805c4.484-8.48,2.289-18.168,0.164-27.535
		c-0.298-1.318-0.596-2.655-0.879-3.99h-1.543C229.301,190.3,229.625,191.748,229.948,193.176z"/>
	<path fill="#A97C50" d="M215.144,195.223c-1.006,7.423-5.17,18.188-9.688,25.034c-5.352,8.115-11.314,12.645-22.785,17.316
		c-2.99,1.218-5.445,2.78-7.817,4.293c-4.068,2.594-7.542,4.8-12.452,4.454c-1.86-0.136-4.663-1.537-7.134-2.773
		c-1.93-0.966-3.752-1.878-5.202-2.27c-7.477-2.017-15.21-7.977-20.377-12.284c-1.953-1.628-4.297-3.143-6.779-4.747
		c-5.463-3.527-11.11-7.176-13.264-12.461c-1.819-4.472-1.092-12.254-0.507-18.508c0.146-1.56,0.281-3.051,0.376-4.425h-1.512
		c-0.094,1.329-0.225,2.773-0.366,4.285c-0.631,6.75-1.348,14.402,0.612,19.215c2.332,5.727,8.183,9.506,13.842,13.162
		c2.442,1.577,4.75,3.067,6.631,4.636c5.275,4.399,13.187,10.49,20.95,12.584c1.305,0.351,3.062,1.23,4.92,2.161
		c2.724,1.363,5.542,2.772,7.701,2.928c0.382,0.029,0.757,0.041,1.125,0.041c4.826,0,8.43-2.295,12.245-4.726
		c2.317-1.476,4.712-3.003,7.576-4.17c9.859-4.013,17.226-8.405,23.477-17.882c4.624-7.011,8.891-18.043,9.923-25.662
		c0.298-2.201,0.213-4.394-0.13-6.572h-1.513C215.346,190.97,215.433,193.087,215.144,195.223z"/>
	<path fill="#A97C50" d="M224.983,193.812c-1.06,7.635-5.36,18.494-10.23,25.822c-6.182,9.305-17.811,18.602-28.939,23.132
		c-7.659,3.12-14.893,6.066-22.56,6.066c-0.682,0-1.367-0.024-2.039-0.071c-1.977-0.136-4.945-1.607-7.563-2.906
		c-2.037-1.01-3.96-1.965-5.49-2.371c-7.92-2.108-16.095-8.369-21.554-12.895c-2.063-1.709-4.539-3.299-7.162-4.979
		c-5.778-3.705-11.752-7.536-14.021-13.107c-1.919-4.711-1.127-12.916-0.491-19.507c0.14-1.445,0.271-2.841,0.373-4.143h-1.512
		c-0.099,1.254-0.229,2.604-0.362,3.998c-0.686,7.107-1.464,15.165,0.596,20.221c2.448,6.014,8.629,9.977,14.604,13.808
		c2.582,1.657,5.022,3.222,7.012,4.871c5.57,4.616,13.924,11.007,22.129,13.19c1.385,0.369,3.242,1.291,5.208,2.267
		c2.878,1.427,5.854,2.901,8.13,3.061c0.707,0.05,1.428,0.073,2.144,0.073c7.963,0,15.33-3.001,23.13-6.178
		c11.384-4.635,23.291-14.158,29.627-23.695c4.98-7.493,9.381-18.617,10.466-26.449c0.241-1.741,0.162-3.463-0.135-5.166h-1.521
		C225.126,190.493,225.213,192.142,224.983,193.812z"/>
	<path fill="#A97C50" d="M201.491,194.124c-0.986,5.384-4.328,12.907-7.946,17.887c-4.592,6.316-12.956,12.355-20.815,15.028
		c-4.922,1.675-9.571,3.256-14.328,3.256c-0.979,0-1.953-0.068-2.896-0.204c-1.329-0.191-3.326-1.379-5.088-2.428
		c-1.395-0.831-2.714-1.616-3.787-1.992c-5.407-1.891-10.87-6.761-14.51-10.26c-1.387-1.335-3.065-2.598-4.84-3.938
		c-3.879-2.922-7.89-5.945-9.267-9.991c-1.061-3.121-0.474-8.218,0.138-12.629h-1.521c-0.647,4.686-1.202,9.709-0.044,13.113
		c1.525,4.486,5.915,7.795,9.785,10.713c1.739,1.311,3.382,2.548,4.704,3.818c3.74,3.598,9.37,8.61,15.057,10.599
		c0.93,0.325,2.185,1.072,3.513,1.862c1.976,1.177,4.02,2.395,5.646,2.627c1.013,0.145,2.06,0.219,3.109,0.219
		c5.006,0,9.771-1.621,14.813-3.338c8.131-2.764,16.791-9.021,21.549-15.567c3.736-5.142,7.19-12.923,8.211-18.504
		c0.34-1.852,0.191-3.703-0.237-5.542h-1.542C201.645,190.627,201.81,192.38,201.491,194.124z"/>
	<path fill="#A97C50" d="M195.946,193.128c-0.938,4.729-4.017,11.357-7.323,15.76c-4.196,5.584-11.792,10.962-18.902,13.382
		c-4.523,1.538-8.796,2.991-13.153,2.991c-0.811,0-1.619-0.051-2.402-0.152c-1.185-0.154-2.968-1.176-4.543-2.079
		c-1.256-0.721-2.442-1.4-3.417-1.722c-4.849-1.609-9.726-5.832-12.974-8.869c-1.245-1.164-2.748-2.262-4.343-3.425
		c-3.461-2.524-7.041-5.135-8.235-8.646c-0.958-2.821-0.297-7.541,0.316-11.516h-1.526c-0.654,4.254-1.275,8.893-0.217,12.002
		c1.347,3.962,5.292,6.84,8.772,9.378c1.556,1.134,3.024,2.206,4.203,3.31c3.351,3.132,8.398,7.496,13.529,9.197
		c0.83,0.274,1.953,0.918,3.142,1.6c1.778,1.02,3.617,2.073,5.098,2.264c0.848,0.111,1.721,0.166,2.597,0.166
		c4.606,0,8.994-1.491,13.639-3.071c7.375-2.508,15.261-8.096,19.623-13.903c3.426-4.562,6.62-11.447,7.598-16.373
		c0.303-1.531,0.226-3.057-0.086-4.568h-1.539C196.129,190.29,196.226,191.711,195.946,193.128z"/>
	<path fill="#A97C50" d="M209.268,193.395c-1.236,6.031-5.242,14.487-9.527,20.108c-5.442,7.138-15.265,14.032-24.443,17.155
		c-5.871,1.995-11.419,3.882-17.085,3.882c-1.011,0-2.019-0.061-2.994-0.182c-1.559-0.192-3.864-1.49-5.896-2.635
		c-1.599-0.9-3.106-1.749-4.333-2.146c-6.254-2.021-12.51-7.364-16.673-11.208c-1.582-1.462-3.502-2.841-5.534-4.301
		c-4.452-3.199-9.056-6.507-10.588-11.008c-1.188-3.496-0.401-9.251,0.39-14.208h-1.528c-0.834,5.254-1.577,10.905-0.289,14.693
		c1.688,4.959,6.706,8.564,11.135,11.748c1.994,1.432,3.878,2.784,5.391,4.182c4.267,3.94,10.696,9.424,17.232,11.536
		c1.082,0.352,2.527,1.165,4.057,2.024c2.261,1.275,4.598,2.591,6.454,2.819c1.036,0.127,2.106,0.193,3.178,0.193
		c5.917,0,11.577-1.926,17.57-3.964c9.439-3.21,19.55-10.311,25.157-17.667c4.405-5.78,8.53-14.494,9.806-20.72
		c0.333-1.622,0.32-3.238,0.074-4.846h-1.521C209.551,190.372,209.578,191.883,209.268,193.395z"/>
	<path fill="#A97C50" d="M190.439,189.518c-0.39,3.965-2.357,9.625-4.683,13.458c-2.899,4.783-8.733,9.784-14.185,12.162
		c-4.158,1.813-8.07,3.507-12.297,3.264c-0.941-0.055-2.454-0.793-3.787-1.442c-1.079-0.526-2.097-1.023-2.924-1.237
		c-4.024-1.041-8.287-4.245-11.142-6.566c-1.105-0.897-2.412-1.722-3.795-2.594c-2.983-1.881-6.069-3.825-7.296-6.639
		c-1.041-2.387-0.799-6.651-0.604-10.078c0.02-0.337,0.039-0.668,0.056-0.993h-1.51c-0.016,0.298-0.033,0.601-0.051,0.908
		c-0.216,3.773-0.46,8.051,0.725,10.767c1.413,3.238,4.846,5.402,7.875,7.311c1.344,0.85,2.614,1.648,3.648,2.488
		c2.966,2.41,7.406,5.742,11.717,6.856c0.679,0.176,1.632,0.641,2.64,1.131c1.532,0.747,3.116,1.52,4.359,1.595
		c0.314,0.019,0.625,0.026,0.935,0.026c4.225,0,8.026-1.658,12.054-3.414c5.802-2.529,11.778-7.658,14.872-12.763
		c2.466-4.068,4.479-9.863,4.893-14.093c0.026-0.273,0.017-0.543,0.018-0.813h-1.506
		C190.451,189.073,190.461,189.294,190.439,189.518z"/>
	<path fill="#A97C50" d="M182.131,200.907c-1.317,2.091-4.236,4.375-7.407,6.301c-0.455,0.3-0.887,0.569-1.269,0.792
		c-0.189,0.11-0.396,0.205-0.612,0.294c-0.959,0.526-1.918,1.012-2.84,1.439c-2.304,1.067-4.432,1.523-7.116,1.523
		c-0.799,0-1.691-0.039-2.808-0.123c-2.435-0.182-5.293-1.987-7.816-3.578c-0.767-0.484-1.49-0.939-2.171-1.333
		c-4.108-2.362-7.95-4.819-9.83-8.872c-1.483-3.203-1.674-5.125-1.552-8.483c0-0.005,0-0.011,0-0.015h-1.508
		c-0.126,3.518,0.093,5.682,1.691,9.132c2.065,4.454,6.12,7.057,10.445,9.547c0.654,0.376,1.365,0.825,2.118,1.3
		c2.672,1.686,5.7,3.597,8.508,3.808c1.155,0.087,2.082,0.127,2.921,0.127c2.918,0,5.235-0.498,7.751-1.664
		c4.467-2.071,10.492-5.773,12.77-9.391c1.927-3.06,4.089-8.098,4.334-12.858h-1.508
		C185.989,193.294,183.949,198.021,182.131,200.907z"/>
	<path fill="#A97C50" d="M181.58,200.853c1.394-2.337,3.136-6.077,3.456-8.931c0.079-0.709-0.062-1.859-0.241-3.069h-1.525
		c0.17,1.129,0.331,2.332,0.268,2.902c-0.295,2.611-1.936,6.117-3.254,8.324c-1.305,2.191-4.881,5.044-7.586,6.617
		c-1.328,0.773-3.963,0.824-6.081,0.863c-0.904,0.02-1.759,0.036-2.441,0.104c-0.729,0.072-1.724-0.317-2.69-0.69
		c-0.758-0.294-1.475-0.571-2.151-0.683c-0.376-0.061-0.744-0.118-1.103-0.174c-3.329-0.518-5.734-0.892-8.268-3.608
		c-0.498-0.533-1.102-0.976-1.688-1.402c-0.841-0.613-1.634-1.192-2.072-1.986c-1.347-2.436-2.878-6.119-3.198-8.446
		c-0.082-0.596-0.086-1.206-0.06-1.821h-1.508c-0.025,0.681-0.018,1.358,0.075,2.027c0.343,2.509,1.956,6.412,3.37,8.969
		c0.599,1.087,1.567,1.793,2.504,2.477c0.552,0.404,1.073,0.785,1.473,1.214c2.89,3.097,5.648,3.525,9.141,4.068
		c0.354,0.056,0.717,0.113,1.091,0.173c0.523,0.085,1.167,0.334,1.851,0.599c1.019,0.396,2.072,0.804,3.055,0.804
		c0.113,0,0.224-0.004,0.332-0.017c0.621-0.063,1.446-0.079,2.318-0.096c2.137-0.041,4.522-0.091,6.198-0.776
		c0.631-0.346,1.26-0.709,1.881-1.086C177.099,205.641,180.22,203.134,181.58,200.853z"/>
	<path fill="#A97C50" d="M151.271,195.97c0.417,0.862,1.151,1.467,1.801,1.998c0.385,0.316,0.748,0.614,1.016,0.935
		c2.052,2.458,4.102,2.907,6.699,3.476l0.798,0.178c0.363,0.082,0.82,0.29,1.307,0.513c0.81,0.37,1.648,0.753,2.463,0.753
		l0.097-0.002c0.466-0.018,1.064,0.008,1.708,0.035c0.593,0.027,1.226,0.055,1.848,0.055c1.524,0,2.581-0.175,3.323-0.545
		c2.162-1.078,4.572-2.383,5.831-4.229l0.408-0.594c1.145-1.651,2.571-3.709,2.898-5.631c0.105-0.617,0.174-2.506,0.206-4.059
		h-1.509c-0.032,1.504-0.097,3.297-0.184,3.806c-0.271,1.591-1.592,3.495-2.651,5.025l-0.415,0.602
		c-1.055,1.547-3.267,2.735-5.258,3.73c-0.519,0.258-1.385,0.385-2.65,0.385c-0.601,0-1.211-0.027-1.783-0.053
		c-0.523-0.021-1.015-0.043-1.439-0.043c-0.138,0-0.269,0.002-0.43,0.009c-0.486,0-1.173-0.314-1.836-0.617
		c-0.534-0.244-1.085-0.496-1.6-0.612l-0.809-0.18c-2.495-0.547-4.143-0.907-5.864-2.969c-0.358-0.429-0.796-0.787-1.218-1.134
		c-0.579-0.475-1.126-0.925-1.398-1.489c-0.867-1.788-1.862-4.598-2-6.281c-0.005-0.059,0.001-0.119-0.003-0.179h-1.507
		c0.005,0.101-0.002,0.201,0.006,0.303C149.28,191.042,150.322,194.011,151.271,195.97z"/>
	<path fill="#A97C50" d="M151.934,190.203c0.245,1.524,1.271,3.862,2.158,5.383c0.405,0.695,1.044,1.139,1.608,1.53
		c0.321,0.224,0.622,0.433,0.846,0.659c1.828,1.873,3.602,2.103,5.653,2.367l0.644,0.085c0.278,0.038,0.649,0.171,1.043,0.313
		c0.613,0.221,1.248,0.447,1.87,0.447c0.098,0,0.196-0.005,0.291-0.017c0.354-0.046,0.837-0.068,1.348-0.092
		c1.465-0.066,3.125-0.143,4.166-0.787c1.533-0.948,3.556-2.424,4.483-4.072c0.232-0.414,0.513-0.788,0.809-1.181
		c0.648-0.864,1.319-1.759,1.435-3.063c0.031-0.352,0.114-1.674,0.169-2.924h-1.508c-0.052,1.139-0.126,2.358-0.164,2.791
		c-0.077,0.875-0.569,1.53-1.139,2.288c-0.312,0.417-0.637,0.847-0.917,1.348c-0.601,1.068-2.007,2.321-3.96,3.53
		c-0.71,0.437-2.226,0.507-3.444,0.563c-0.542,0.025-1.055,0.048-1.471,0.102c-0.375,0.054-0.918-0.161-1.458-0.354
		c-0.448-0.161-0.913-0.327-1.347-0.389l-0.655-0.085c-1.991-0.256-3.306-0.427-4.77-1.926c-0.323-0.33-0.699-0.592-1.064-0.843
		c-0.477-0.332-0.929-0.646-1.164-1.053c-0.798-1.364-1.759-3.534-1.974-4.861c-0.058-0.361-0.066-0.734-0.054-1.111h-1.508
		C151.849,189.307,151.863,189.758,151.934,190.203z"/>
	<path fill="#A97C50" d="M156.227,189.647c0.139,0.724,0.642,2.52,1.179,3.398c0.51,0.835,1.668,1.496,2.599,2.026
		c0.252,0.144,0.482,0.275,0.663,0.391c0.692,0.446,1.442,0.481,2.105,0.514c0.228,0.012,0.456,0.021,0.679,0.052
		c0.317,0.043,0.779,0.051,1.026,0.051c0.255,0,0.496-0.008,0.66-0.018c0.159-0.012,0.313-0.014,0.459-0.014h0.28
		c0.616,0,1.275-0.038,1.982-0.498c1.102-0.72,2.563-2.033,3.053-3.373c0.286-0.783,0.45-2.242,0.454-3.323h-1.509
		c-0.006,0.916-0.147,2.219-0.362,2.806c-0.338,0.921-1.513,2.009-2.462,2.628c-0.359,0.235-0.69,0.253-1.155,0.253h-0.28
		c-0.181,0-0.365,0.002-0.561,0.015c-0.366,0.027-1.116,0.016-1.377-0.021c-0.268-0.036-0.541-0.051-0.813-0.063
		c-0.541-0.027-1.009-0.05-1.361-0.276c-0.199-0.127-0.453-0.272-0.733-0.433c-0.697-0.397-1.751-0.998-2.059-1.503
		c-0.364-0.595-0.84-2.142-0.98-2.855c0.004-0.1,0.096-0.334,0.188-0.55h-1.605C156.215,189.125,156.178,189.393,156.227,189.647z"
		/>
</g>
<rect x="0" y="8.613" fill="#B5855B" width="329.833" height="5"/>
</svg>
